<svg width="22" height="22" viewBox="0 0 22 22" fill="none" xmlns="http://www.w3.org/2000/svg">
<path d="M9.42857 12.5714H1.57143C1.1262 12.5714 0.753243 12.4206 0.452577 12.1189C0.15191 11.8171 0.00105304 11.4442 5.41871e-06 11C-0.0010422 10.5558 0.149815 10.1829 0.452577 9.88114C0.755339 9.57943 1.12829 9.42857 1.57143 9.42857H9.42857V1.57143C9.42857 1.1262 9.57943 0.753243 9.88114 0.452577C10.1829 0.15191 10.5558 0.00105304 11 5.41871e-06C11.4442 -0.0010422 11.8177 0.149815 12.1204 0.452577C12.4232 0.755339 12.5735 1.12829 12.5714 1.57143V9.42857H20.4286C20.8738 9.42857 21.2473 9.57943 21.549 9.88114C21.8507 10.1829 22.001 10.5558 22 11C21.9989 11.4442 21.8481 11.8177 21.5474 12.1204C21.2468 12.4232 20.8738 12.5735 20.4286 12.5714H12.5714V20.4286C12.5714 20.8738 12.4206 21.2473 12.1189 21.549C11.8171 21.8507 11.4442 22.001 11 22C10.5558 21.9989 10.1829 21.8481 9.88114 21.5474C9.57943 21.2468 9.42857 20.8738 9.42857 20.4286V12.5714Z" fill="#E433F5"/>
</svg>
