<svg width="30" height="30" viewBox="0 0 30 30" fill="none" xmlns="http://www.w3.org/2000/svg">
<g clip-path="url(#clip0_374_173)">
<path fill-rule="evenodd" clip-rule="evenodd" d="M0.471379 2.74281C0.187493 2.43815 0.0329433 2.03519 0.0402894 1.61883C0.0476356 1.20247 0.216304 0.805217 0.510761 0.510761C0.805217 0.216304 1.20247 0.0476356 1.61883 0.0402894C2.03519 0.0329433 2.43815 0.187493 2.74281 0.471379L15.8635 13.5899L17.9057 11.5457L17.9121 11.5414C18.0222 11.4336 18.1098 11.3049 18.1695 11.1629C18.2293 11.0209 18.26 10.8683 18.26 10.7142C18.26 10.5601 18.2293 10.4076 18.1695 10.2656C18.1098 10.1235 18.0222 9.99485 17.9121 9.88709L17.8992 9.87424C17.2874 9.25289 16.9445 8.41587 16.9445 7.54388C16.9445 6.67189 17.2874 5.83487 17.8992 5.21352L21.9064 1.20638L21.9149 1.19781C22.5398 0.585306 23.3799 0.242228 24.2549 0.242228C25.13 0.242228 25.9701 0.585306 26.5949 1.19781L27.5314 2.15566C28.8024 3.41304 29.6023 5.0694 29.7966 6.8467C29.9909 8.62401 29.5679 10.4141 28.5985 11.9164L28.5857 11.9378C26.6685 14.7617 24.522 17.4228 22.1678 19.8942L29.5285 27.2571C29.6864 27.4042 29.8131 27.5817 29.9009 27.7788C29.9887 27.9759 30.036 28.1888 30.0398 28.4045C30.0436 28.6203 30.0039 28.8347 29.9231 29.0348C29.8422 29.2349 29.7219 29.4167 29.5693 29.5693C29.4167 29.7219 29.2349 29.8422 29.0348 29.9231C28.8347 30.0039 28.6203 30.0436 28.4045 30.0398C28.1888 30.036 27.9759 29.9887 27.7788 29.9009C27.5817 29.8131 27.4042 29.6864 27.2571 29.5285L0.471379 2.74281ZM11.7042 17.7471L17.9078 23.9507L17.7557 24.0921C15.9107 25.6824 13.9737 27.1628 11.9549 28.5257L11.9357 28.5364C10.4333 29.5057 8.6433 29.9287 6.86599 29.7344C5.08868 29.5401 3.43232 28.7403 2.17495 27.4692L1.23209 26.5478L1.21709 26.5328C0.604592 25.9079 0.261513 25.0678 0.261513 24.1928C0.261513 23.3178 0.604592 22.4777 1.21709 21.8528L5.24995 17.8607L5.25209 17.8585C5.87344 17.2467 6.71046 16.9038 7.58245 16.9038C8.45444 16.9038 9.29146 17.2467 9.91281 17.8585C10.137 18.0777 10.4382 18.2005 10.7517 18.2005C11.0653 18.2005 11.3664 18.0777 11.5907 17.8585L11.7042 17.7471Z" fill="#D9D9D9"/>
</g>
<defs>
<clipPath id="clip0_374_173">
<rect width="30" height="30" fill="white"/>
</clipPath>
</defs>
</svg>
