<svg width="109" height="109" viewBox="0 0 109 109" fill="none" xmlns="http://www.w3.org/2000/svg">
<path d="M0 54.5C0 24.4005 24.4005 0 54.5 0C84.5995 0 109 24.4005 109 54.5C109 84.5995 84.5995 109 54.5 109C24.4005 109 0 84.5995 0 54.5Z" fill="#020222"/>
<path d="M37.2008 53C37.1999 53.9603 37.447 54.9046 37.9181 55.7413C38.3892 56.5781 39.0684 57.2791 39.8899 57.7764L65.8358 73.3205C66.68 73.8143 67.639 74.0777 68.617 74.0845C69.5949 74.0912 70.5575 73.8411 71.4084 73.359C72.2593 72.877 72.9688 72.18 73.4658 71.3377C73.9627 70.4955 74.2299 69.5375 74.2404 68.5595V37.4616C74.2335 36.4846 73.9704 35.5264 73.4774 34.6829C72.9844 33.8393 72.2787 33.1398 71.4308 32.6543C70.5829 32.1687 69.6225 31.9141 68.6454 31.9159C67.6683 31.9176 66.7088 32.1756 65.8626 32.6642L39.8995 48.2199C39.0769 48.7177 38.3965 49.4191 37.9238 50.2564C37.4512 51.0936 37.2021 52.0386 37.2008 53Z" fill="#E2E2FE"/>
<path d="M56.3188 40.7199C63.2226 45.0248 66.6745 47.1753 67.7134 49.9966C68.4281 51.9351 68.4281 54.0649 67.7134 56.0034C66.6745 58.8248 63.2226 60.9753 56.3188 65.2801C48.5505 70.1235 44.6655 72.5443 41.4589 72.1188C39.2672 71.8293 37.2608 70.7373 35.8277 69.054C33.75 66.6083 33.75 62.0716 33.75 53C33.75 43.9284 33.75 39.3917 35.8277 36.946C37.2608 35.2627 39.2672 34.1708 41.4589 33.8813C44.6655 33.4558 48.5505 35.8765 56.3188 40.7199Z" stroke="#E2E2FE" stroke-width="1.5" stroke-linecap="round" stroke-linejoin="round"/>
</svg>
