<svg width="22" height="31" viewBox="0 0 22 31" fill="none" xmlns="http://www.w3.org/2000/svg">
<g clip-path="url(#clip0_374_164)">
<path d="M10.5769 21.553C12.1489 21.5514 13.6562 20.9261 14.7678 19.8145C15.8794 18.7029 16.5046 17.1957 16.5063 15.6236V6.72946C16.5063 5.15688 15.8816 3.64871 14.7696 2.53673C13.6576 1.42475 12.1494 0.800049 10.5769 0.800049C9.00429 0.800049 7.49613 1.42475 6.38415 2.53673C5.27217 3.64871 4.64746 5.15688 4.64746 6.72946V15.6236C4.6491 17.1957 5.27433 18.7029 6.38595 19.8145C7.49758 20.9261 9.0048 21.5514 10.5769 21.553Z" fill="#D9D9D9"/>
<path d="M20.9531 15.6236V12.6589C20.9531 12.2657 20.797 11.8887 20.519 11.6107C20.241 11.3327 19.8639 11.1765 19.4708 11.1765C19.0776 11.1765 18.7006 11.3327 18.4226 11.6107C18.1446 11.8887 17.9884 12.2657 17.9884 12.6589V15.6236C17.9884 17.5893 17.2076 19.4745 15.8176 20.8645C14.4276 22.2545 12.5424 23.0353 10.5767 23.0353C8.61094 23.0353 6.72573 22.2545 5.33576 20.8645C3.94578 19.4745 3.1649 17.5893 3.1649 15.6236V12.6589C3.1649 12.2657 3.00873 11.8887 2.73073 11.6107C2.45273 11.3327 2.07569 11.1765 1.68255 11.1765C1.2894 11.1765 0.912362 11.3327 0.634366 11.6107C0.356371 11.8887 0.200195 12.2657 0.200195 12.6589L0.200195 15.6236C0.204402 18.1065 1.09817 20.5058 2.71947 22.3863C4.34076 24.2669 6.58223 25.5042 9.03749 25.874L9.09431 25.8815V27.4824H4.64725C4.45259 27.4824 4.25983 27.5207 4.07998 27.5952C3.90014 27.6697 3.73672 27.7789 3.59907 27.9166C3.46142 28.0542 3.35223 28.2176 3.27774 28.3975C3.20324 28.5773 3.1649 28.7701 3.1649 28.9648C3.1649 29.1594 3.20324 29.3522 3.27774 29.532C3.35223 29.7119 3.46142 29.8753 3.59907 30.0129C3.73672 30.1506 3.90014 30.2598 4.07998 30.3343C4.25983 30.4088 4.45259 30.4471 4.64725 30.4471H16.5061C16.7007 30.4471 16.8935 30.4088 17.0733 30.3343C17.2532 30.2598 17.4166 30.1506 17.5543 30.0129C17.6919 29.8753 17.8011 29.7119 17.8756 29.532C17.9501 29.3522 17.9884 29.1594 17.9884 28.9648C17.9884 28.7701 17.9501 28.5773 17.8756 28.3975C17.8011 28.2176 17.6919 28.0542 17.5543 27.9166C17.4166 27.7789 17.2532 27.6697 17.0733 27.5952C16.8935 27.5207 16.7007 27.4824 16.5061 27.4824H12.059V25.8815C17.1114 25.1292 20.9445 20.8254 20.9531 15.6248V15.6236Z" fill="#D9D9D9"/>
</g>
<defs>
<clipPath id="clip0_374_164">
<rect width="21" height="29.6471" fill="white" transform="translate(0.200195 0.800049)"/>
</clipPath>
</defs>
</svg>
