<svg width="39" height="39" viewBox="0 0 39 39" fill="none" xmlns="http://www.w3.org/2000/svg">
<g clip-path="url(#clip0_374_169)">
<path d="M32 28.7999C33.76 28.7999 35.184 27.3599 35.184 25.5999L35.2 9.5999C35.2 8.75121 34.8629 7.93728 34.2627 7.33716C33.6626 6.73704 32.8487 6.3999 32 6.3999H6.4C4.624 6.3999 3.2 7.8239 3.2 9.5999V25.5999C3.2 26.4486 3.53714 27.2625 4.13726 27.8626C4.73737 28.4628 5.55131 28.7999 6.4 28.7999H0V31.9999H38.4V28.7999H32ZM20.8 23.1519V19.6479C16.352 19.6479 13.424 21.0079 11.2 23.9999C12.096 19.7279 14.576 15.4719 20.8 14.6079V11.1999L27.2 17.1679L20.8 23.1519Z" fill="#D9D9D9"/>
</g>
<defs>
<clipPath id="clip0_374_169">
<rect width="38.4" height="38.4" fill="white"/>
</clipPath>
</defs>
</svg>
