<svg width="40" height="40" viewBox="0 0 40 40" fill="none" xmlns="http://www.w3.org/2000/svg">
<path fill-rule="evenodd" clip-rule="evenodd" d="M23.7984 3.58683C23.1817 3.3335 22.3984 3.3335 20.8334 3.3335C19.2684 3.3335 18.4867 3.3335 17.8684 3.58683C17.4615 3.75307 17.0916 3.99813 16.7798 4.30791C16.468 4.61768 16.2206 4.98606 16.0517 5.39183C15.895 5.7635 15.835 6.1985 15.81 6.83016C15.7981 7.28766 15.6702 7.73463 15.4381 8.12909C15.206 8.52354 14.8775 8.85254 14.4834 9.08516C14.0813 9.30867 13.6293 9.42707 13.1692 9.4294C12.7092 9.43173 12.256 9.31792 11.8517 9.0985C11.2884 8.80183 10.88 8.6385 10.4767 8.58516C9.59434 8.47004 8.70215 8.70716 7.99337 9.24516C7.46337 9.6485 7.0717 10.3218 6.29004 11.6668C5.5067 13.0118 5.1167 13.6835 5.02837 14.3418C4.9117 15.2185 5.1517 16.1052 5.69504 16.8068C5.9417 17.1268 6.29004 17.3952 6.82837 17.7318C7.62337 18.2268 8.13337 19.0702 8.13337 20.0002C8.13337 20.9302 7.62337 21.7735 6.83004 22.2668C6.29004 22.6052 5.9417 22.8735 5.69337 23.1935C5.42598 23.5405 5.22962 23.9368 5.11551 24.3598C5.00141 24.7828 4.9718 25.2241 5.02837 25.6585C5.1167 26.3152 5.5067 26.9885 6.29004 28.3335C7.07337 29.6785 7.46337 30.3502 7.99337 30.7552C8.70004 31.2935 9.59337 31.5302 10.4767 31.4152C10.88 31.3618 11.2884 31.1985 11.8517 30.9018C12.2562 30.6821 12.7097 30.5681 13.1701 30.5705C13.6304 30.5728 14.0827 30.6914 14.485 30.9152C15.295 31.3818 15.775 32.2402 15.81 33.1702C15.835 33.8035 15.895 34.2368 16.0517 34.6085C16.3917 35.4252 17.045 36.0752 17.8684 36.4135C18.485 36.6668 19.2684 36.6668 20.8334 36.6668C22.3984 36.6668 23.1817 36.6668 23.7984 36.4135C24.2052 36.2473 24.5752 36.0022 24.887 35.6924C25.1987 35.3826 25.4462 35.0143 25.615 34.6085C25.7717 34.2368 25.8317 33.8035 25.8567 33.1702C25.89 32.2402 26.3717 31.3802 27.1834 30.9152C27.5855 30.6917 28.0375 30.5733 28.4975 30.5709C28.9575 30.5686 29.4107 30.6824 29.815 30.9018C30.3784 31.1985 30.7867 31.3618 31.19 31.4152C32.0734 31.5318 32.9667 31.2935 33.6734 30.7552C34.2034 30.3518 34.595 29.6785 35.3767 28.3335C36.16 26.9885 36.55 26.3168 36.6384 25.6585C36.6947 25.224 36.6648 24.7826 36.5504 24.3596C36.436 23.9367 36.2394 23.5404 35.9717 23.1935C35.725 22.8735 35.3767 22.6052 34.8384 22.2685C34.0434 21.7735 33.5334 20.9302 33.5334 20.0002C33.5334 19.0702 34.0434 18.2268 34.8367 17.7335C35.3767 17.3952 35.725 17.1268 35.9734 16.8068C36.2408 16.4598 36.4371 16.0635 36.5512 15.6405C36.6653 15.2176 36.6949 14.7762 36.6384 14.3418C36.55 13.6852 36.16 13.0118 35.3767 11.6668C34.5934 10.3218 34.2034 9.65016 33.6734 9.24516C32.9646 8.70716 32.0724 8.47004 31.19 8.58516C30.7867 8.6385 30.3784 8.80183 29.815 9.0985C29.4105 9.31821 28.957 9.43219 28.4967 9.42986C28.0363 9.42753 27.584 9.30896 27.1817 9.08516C26.7879 8.85233 26.4597 8.52325 26.2279 8.12881C25.9962 7.73437 25.8684 7.28751 25.8567 6.83016C25.8317 6.19683 25.7717 5.7635 25.615 5.39183C25.4462 4.98606 25.1987 4.61768 24.887 4.30791C24.5752 3.99813 24.2052 3.75307 23.7984 3.58683ZM20.8334 25.0002C23.6167 25.0002 25.8717 22.7618 25.8717 20.0002C25.8717 17.2385 23.615 15.0002 20.8334 15.0002C18.0517 15.0002 15.795 17.2385 15.795 20.0002C15.795 22.7618 18.0517 25.0002 20.8334 25.0002Z" fill="#020222"/>
</svg>
