<svg width="20" height="19" viewBox="0 0 20 19" fill="none" xmlns="http://www.w3.org/2000/svg">
<path d="M17.1429 5.43478C16.352 5.43478 15.6777 5.16993 15.12 4.64022C14.5623 4.11051 14.2842 3.4692 14.2857 2.7163C14.2872 1.96341 14.5653 1.32246 15.12 0.793478C15.6747 0.264493 16.3489 0 17.1429 0C17.9368 0 18.611 0.264493 19.1657 0.793478C19.7204 1.32246 19.9985 1.96377 20 2.71739C20.0015 3.47101 19.7234 4.11196 19.1657 4.64022C18.608 5.16848 17.9337 5.43406 17.1429 5.43478ZM11.1474 19C10.2651 19 9.54857 18.7344 8.99771 18.2033C8.44685 17.6728 8.17142 16.9851 8.17142 16.1402C8.17142 14.9033 8.73524 13.8043 9.86285 12.8435C10.9905 11.8826 12.379 11.3149 14.0286 11.1402C13.9425 10.2091 13.7307 9.52717 13.3931 9.09457C13.0556 8.66196 12.5737 8.44565 11.9474 8.44565C11.2884 8.44565 10.6107 8.68261 9.91428 9.15652C9.2179 9.63043 8.36876 10.4464 7.36685 11.6043C6.26209 12.8993 5.36952 13.7862 4.68914 14.2652C4.00876 14.7449 3.31962 14.9848 2.62171 14.9848C1.84076 14.9848 1.20838 14.7207 0.724571 14.1924C0.241524 13.6641 0 12.9667 0 12.1C0 11.2884 0.190857 10.4337 0.572571 9.53587C0.954285 8.63804 1.56114 7.6337 2.39314 6.52283C2.88686 5.87065 3.23809 5.33986 3.44686 4.93044C3.65486 4.52029 3.75886 4.17391 3.75886 3.8913C3.75886 3.66667 3.6979 3.50181 3.576 3.39674C3.45562 3.29167 3.2819 3.23913 3.05486 3.23913C2.872 3.23913 2.67733 3.2837 2.47086 3.37283C2.26438 3.46196 2.04076 3.59964 1.8 3.78587C1.61714 3.94239 1.41333 4.02283 1.18857 4.02717C0.963809 4.03152 0.769142 3.95543 0.604571 3.79891C0.421714 3.63442 0.329142 3.4413 0.326857 3.21957C0.324571 2.99783 0.417142 2.80833 0.604571 2.65109C1.01752 2.29891 1.43086 2.03696 1.84457 1.86522C2.25828 1.69348 2.66171 1.60797 3.05486 1.6087C3.75581 1.6087 4.33409 1.82174 4.78971 2.24783C5.24533 2.67464 5.47314 3.21812 5.47314 3.87826C5.47314 4.36232 5.34095 4.88623 5.07657 5.45C4.81295 6.01522 4.34819 6.74855 3.68228 7.65C3.0019 8.58623 2.504 9.40833 2.18857 10.1163C1.87238 10.8243 1.71429 11.4728 1.71429 12.062C1.71429 12.4533 1.79962 12.7667 1.97028 13.0022C2.14095 13.2377 2.35809 13.3551 2.62171 13.3543C2.85638 13.3543 3.08876 13.2942 3.31886 13.1739C3.55047 13.0529 3.83467 12.8442 4.17143 12.5478C4.41905 12.3355 4.68876 12.0681 4.98057 11.7457C5.27238 11.4232 5.62171 11.0391 6.02857 10.5935C7.24304 9.20652 8.29219 8.23007 9.176 7.66413C10.0598 7.09819 10.9764 6.81558 11.9257 6.8163C13.0404 6.8163 13.9341 7.19601 14.6069 7.95543C15.2796 8.71485 15.6583 9.7663 15.7429 11.1098H17.4503C17.6895 11.1098 17.8922 11.1888 18.0583 11.3467C18.2244 11.5047 18.3074 11.6975 18.3074 11.925C18.3074 12.1525 18.2244 12.3449 18.0583 12.5022C17.8922 12.6609 17.6895 12.7402 17.4503 12.7402H15.7429C15.6202 14.6431 15.1402 16.1623 14.3029 17.2978C13.4648 18.4326 12.4129 19 11.1474 19ZM11.1611 17.3696C11.9314 17.3696 12.5771 16.9518 13.0983 16.1163C13.6194 15.2808 13.9272 14.1699 14.0217 12.7837C12.8964 12.8996 11.9257 13.2866 11.1097 13.9446C10.2937 14.6033 9.88571 15.3199 9.88571 16.0946C9.88571 16.4735 9.99847 16.7808 10.224 17.0163C10.4495 17.2518 10.7619 17.3696 11.1611 17.3696Z" fill="black"/>
</svg>
