<svg width="100" height="100" viewBox="0 0 100 100" fill="none" xmlns="http://www.w3.org/2000/svg">
<rect width="100" height="100" rx="50" fill="#848DF9"/>
<path d="M59.1666 42.0002C61.5977 42.0002 63.9293 42.966 65.6484 44.6851C67.3675 46.4041 68.3333 48.7357 68.3333 51.1669C68.3333 53.598 67.3675 55.9296 65.6484 57.6487C63.9293 59.3678 61.5977 60.3335 59.1666 60.3335C56.7354 60.3335 54.4039 59.3678 52.6848 57.6487C50.9657 55.9296 49.9999 53.598 49.9999 51.1669C49.9999 48.7357 50.9657 46.4041 52.6848 44.6851C54.4039 42.966 56.7354 42.0002 59.1666 42.0002ZM59.1666 45.3335L59.0166 45.3469C58.8501 45.3773 58.6968 45.4577 58.5771 45.5774C58.4574 45.6971 58.377 45.8504 58.3466 46.0169L58.3333 46.1669V50.3335H54.1633L54.0133 50.3485C53.8467 50.379 53.6934 50.4594 53.5738 50.5791C53.4541 50.6987 53.3737 50.852 53.3433 51.0185L53.3299 51.1685L53.3433 51.3185C53.3737 51.485 53.4541 51.6383 53.5738 51.758C53.6934 51.8777 53.8467 51.9581 54.0133 51.9885L54.1633 52.0019H58.3333V56.1735L58.3466 56.3235C58.377 56.49 58.4574 56.6433 58.5771 56.763C58.6968 56.8827 58.8501 56.9631 59.0166 56.9935L59.1666 57.0069L59.3166 56.9935C59.4831 56.9631 59.6364 56.8827 59.7561 56.763C59.8758 56.6433 59.9562 56.49 59.9866 56.3235L59.9999 56.1735V52.0002H64.1733L64.3233 51.9885C64.4898 51.9581 64.6431 51.8777 64.7627 51.758C64.8824 51.6383 64.9628 51.485 64.9933 51.3185L65.0066 51.1685L64.9933 51.0185C64.9627 50.8518 64.8821 50.6983 64.7621 50.5786C64.6421 50.4589 64.4884 50.3787 64.3216 50.3485L64.1716 50.3352H59.9999V46.1685L59.9866 46.0185C59.9565 45.8517 59.8762 45.6981 59.7565 45.5781C59.6368 45.458 59.4833 45.3774 59.3166 45.3469L59.1666 45.3335ZM53.2083 26.1735C53.8617 26.1735 54.5037 26.3442 55.0709 26.6687C55.638 26.9932 56.1105 27.4602 56.4416 28.0235L57.7983 30.3352H61.2499C62.6862 30.3352 64.0637 30.9057 65.0795 31.9211C66.0953 32.9366 66.6661 34.3139 66.6666 35.7502V43.3502C64.6514 41.4116 61.9628 40.3303 59.1666 40.3335C58.4721 40.3335 57.7955 40.3969 57.1366 40.5235C56.732 39.2727 56.0058 38.1501 55.0308 37.2682C54.0557 36.3864 52.866 35.7763 51.5809 35.499C50.2958 35.2218 48.9604 35.2871 47.7085 35.6885C46.4566 36.0899 45.3322 36.8133 44.4479 37.7861C43.5636 38.7589 42.9505 39.9471 42.67 41.2315C42.3895 42.5159 42.4515 43.8515 42.8497 45.1044C43.248 46.3573 43.9685 47.4835 44.939 48.3703C45.9096 49.257 47.0962 49.8731 48.3799 50.1569C48.1548 52.5588 48.7378 54.9672 50.0366 57.0002H38.7499C37.3133 57.0002 35.9356 56.4295 34.9198 55.4137C33.9039 54.3979 33.3333 53.0201 33.3333 51.5835V35.7502C33.3333 34.3136 33.9039 32.9359 34.9198 31.92C35.9356 30.9042 37.3133 30.3335 38.7499 30.3335H42.2166L43.6749 27.9602C44.0102 27.4139 44.48 26.9627 45.0393 26.6496C45.5987 26.3365 46.2289 26.172 46.8699 26.1719L53.2083 26.1735ZM49.9999 37.8335C51.0529 37.8335 52.0789 38.1659 52.9319 38.7833C53.7848 39.4007 54.4211 40.2716 54.7499 41.2719C53.3835 41.8837 52.1582 42.7712 51.151 43.8789C50.1437 44.9865 49.3762 46.2903 48.8966 47.7085C47.7003 47.434 46.6468 46.7291 45.9367 45.7281C45.2265 44.727 44.9094 43.4997 45.0457 42.2799C45.182 41.0601 45.7622 39.9331 46.6758 39.1135C47.5894 38.2938 48.7726 37.8389 49.9999 37.8352" fill="#E2E2FE"/>
<path d="M24.6401 66.832V73.744C24.6401 74.5013 24.8375 75.0827 25.2321 75.488C25.6268 75.8827 26.1815 76.08 26.8961 76.08C27.6215 76.08 28.1815 75.8827 28.5761 75.488C28.9708 75.0827 29.1681 74.5013 29.1681 73.744V66.832H31.4241V73.728C31.4241 74.6773 31.2161 75.4827 30.8001 76.144C30.3948 76.7947 29.8455 77.2853 29.1521 77.616C28.4695 77.9467 27.7068 78.112 26.8641 78.112C26.0321 78.112 25.2748 77.9467 24.5921 77.616C23.9201 77.2853 23.3868 76.7947 22.9921 76.144C22.5975 75.4827 22.4001 74.6773 22.4001 73.728V66.832H24.6401ZM35.8284 70.416C36.1164 70.0107 36.511 69.6747 37.0124 69.408C37.5244 69.1307 38.1057 68.992 38.7564 68.992C39.5137 68.992 40.1964 69.1787 40.8044 69.552C41.423 69.9253 41.9084 70.4587 42.2604 71.152C42.623 71.8347 42.8044 72.6293 42.8044 73.536C42.8044 74.4427 42.623 75.248 42.2604 75.952C41.9084 76.6453 41.423 77.184 40.8044 77.568C40.1964 77.952 39.5137 78.144 38.7564 78.144C38.1057 78.144 37.5297 78.0107 37.0284 77.744C36.5377 77.4773 36.1377 77.1413 35.8284 76.736V82.224H33.5884V69.136H35.8284V70.416ZM40.5164 73.536C40.5164 73.0027 40.4044 72.544 40.1804 72.16C39.967 71.7653 39.679 71.4667 39.3164 71.264C38.9644 71.0613 38.5804 70.96 38.1644 70.96C37.759 70.96 37.375 71.0667 37.0124 71.28C36.6604 71.4827 36.3724 71.7813 36.1484 72.176C35.935 72.5707 35.8284 73.0347 35.8284 73.568C35.8284 74.1013 35.935 74.5653 36.1484 74.96C36.3724 75.3547 36.6604 75.6587 37.0124 75.872C37.375 76.0747 37.759 76.176 38.1644 76.176C38.5804 76.176 38.9644 76.0693 39.3164 75.856C39.679 75.6427 39.967 75.3387 40.1804 74.944C40.4044 74.5493 40.5164 74.08 40.5164 73.536ZM46.6721 66.16V78H44.4321V66.16H46.6721ZM52.8213 78.144C51.9679 78.144 51.1999 77.9573 50.5173 77.584C49.8346 77.2 49.2959 76.6613 48.9013 75.968C48.5173 75.2747 48.3253 74.4747 48.3253 73.568C48.3253 72.6613 48.5226 71.8613 48.9173 71.168C49.3226 70.4747 49.8719 69.9413 50.5653 69.568C51.2586 69.184 52.0319 68.992 52.8853 68.992C53.7386 68.992 54.5119 69.184 55.2053 69.568C55.8986 69.9413 56.4426 70.4747 56.8373 71.168C57.2426 71.8613 57.4453 72.6613 57.4453 73.568C57.4453 74.4747 57.2373 75.2747 56.8212 75.968C56.4159 76.6613 55.8613 77.2 55.1573 77.584C54.4639 77.9573 53.6853 78.144 52.8213 78.144ZM52.8213 76.192C53.2266 76.192 53.6053 76.096 53.9573 75.904C54.3199 75.7013 54.6079 75.4027 54.8213 75.008C55.0346 74.6133 55.1413 74.1333 55.1413 73.568C55.1413 72.7253 54.9173 72.08 54.4693 71.632C54.0319 71.1733 53.4933 70.944 52.8533 70.944C52.2133 70.944 51.6746 71.1733 51.2373 71.632C50.8106 72.08 50.5973 72.7253 50.5973 73.568C50.5973 74.4107 50.8053 75.0613 51.2213 75.52C51.6479 75.968 52.1813 76.192 52.8213 76.192ZM58.5124 73.536C58.5124 72.64 58.6884 71.8453 59.0404 71.152C59.403 70.4587 59.8884 69.9253 60.4964 69.552C61.115 69.1787 61.803 68.992 62.5604 68.992C63.2217 68.992 63.7977 69.1253 64.2884 69.392C64.7897 69.6587 65.1897 69.9947 65.4884 70.4V69.136H67.7444V78H65.4884V76.704C65.2004 77.12 64.8004 77.4667 64.2884 77.744C63.787 78.0107 63.2057 78.144 62.5444 78.144C61.7977 78.144 61.115 77.952 60.4964 77.568C59.8884 77.184 59.403 76.6453 59.0404 75.952C58.6884 75.248 58.5124 74.4427 58.5124 73.536ZM65.4884 73.568C65.4884 73.024 65.3817 72.56 65.1684 72.176C64.955 71.7813 64.667 71.4827 64.3044 71.28C63.9417 71.0667 63.5524 70.96 63.1364 70.96C62.7204 70.96 62.3364 71.0613 61.9844 71.264C61.6324 71.4667 61.3444 71.7653 61.1204 72.16C60.907 72.544 60.8004 73.0027 60.8004 73.536C60.8004 74.0693 60.907 74.5387 61.1204 74.944C61.3444 75.3387 61.6324 75.6427 61.9844 75.856C62.347 76.0693 62.731 76.176 63.1364 76.176C63.5524 76.176 63.9417 76.0747 64.3044 75.872C64.667 75.6587 64.955 75.36 65.1684 74.976C65.3817 74.5813 65.4884 74.112 65.4884 73.568ZM69.3561 73.536C69.3561 72.64 69.5321 71.8453 69.8841 71.152C70.2468 70.4587 70.7375 69.9253 71.3561 69.552C71.9748 69.1787 72.6628 68.992 73.4201 68.992C73.9961 68.992 74.5455 69.12 75.0681 69.376C75.5908 69.6213 76.0068 69.952 76.3161 70.368V66.16H78.5881V78H76.3161V76.688C76.0388 77.1253 75.6495 77.4773 75.1481 77.744C74.6468 78.0107 74.0655 78.144 73.4041 78.144C72.6575 78.144 71.9748 77.952 71.3561 77.568C70.7375 77.184 70.2468 76.6453 69.8841 75.952C69.5321 75.248 69.3561 74.4427 69.3561 73.536ZM76.3321 73.568C76.3321 73.024 76.2255 72.56 76.0121 72.176C75.7988 71.7813 75.5108 71.4827 75.1481 71.28C74.7855 71.0667 74.3961 70.96 73.9801 70.96C73.5641 70.96 73.1801 71.0613 72.8281 71.264C72.4761 71.4667 72.1881 71.7653 71.9641 72.16C71.7508 72.544 71.6441 73.0027 71.6441 73.536C71.6441 74.0693 71.7508 74.5387 71.9641 74.944C72.1881 75.3387 72.4761 75.6427 72.8281 75.856C73.1908 76.0693 73.5748 76.176 73.9801 76.176C74.3961 76.176 74.7855 76.0747 75.1481 75.872C75.5108 75.6587 75.7988 75.36 76.0121 74.976C76.2255 74.5813 76.3321 74.112 76.3321 73.568Z" fill="#E2E2FE"/>
</svg>
