<svg width="14" height="14" viewBox="0 0 14 14" fill="none" xmlns="http://www.w3.org/2000/svg">
<path d="M6.84896 8.30729L1.74479 13.4115C1.55382 13.6024 1.31076 13.6979 1.01562 13.6979C0.720486 13.6979 0.47743 13.6024 0.286458 13.4115C0.0954857 13.2205 0 12.9774 0 12.6823C0 12.3872 0.0954857 12.1441 0.286458 11.9531L5.39062 6.84896L0.286458 1.74479C0.0954857 1.55382 0 1.31076 0 1.01562C0 0.720486 0.0954857 0.47743 0.286458 0.286458C0.47743 0.0954857 0.720486 0 1.01562 0C1.31076 0 1.55382 0.0954857 1.74479 0.286458L6.84896 5.39062L11.9531 0.286458C12.1441 0.0954857 12.3872 0 12.6823 0C12.9774 0 13.2205 0.0954857 13.4115 0.286458C13.6024 0.47743 13.6979 0.720486 13.6979 1.01562C13.6979 1.31076 13.6024 1.55382 13.4115 1.74479L8.30729 6.84896L13.4115 11.9531C13.6024 12.1441 13.6979 12.3872 13.6979 12.6823C13.6979 12.9774 13.6024 13.2205 13.4115 13.4115C13.2205 13.6024 12.9774 13.6979 12.6823 13.6979C12.3872 13.6979 12.1441 13.6024 11.9531 13.4115L6.84896 8.30729Z" fill="#E2E2FE" fill-opacity="0.7"/>
</svg>
