<svg width="18" height="18" viewBox="0 0 18 18" fill="none" xmlns="http://www.w3.org/2000/svg">
<g clip-path="url(#clip0_162_2)">
<path d="M6.27041 0.591952C4.47194 1.21586 2.92093 2.40006 1.84522 3.97061C0.769501 5.54116 0.225778 7.41528 0.293912 9.31769C0.362046 11.2201 1.03845 13.0505 2.22376 14.5401C3.40907 16.0297 5.04082 17.0999 6.87932 17.5935C8.36984 17.9781 9.93146 17.995 11.4299 17.6427C12.7874 17.3378 14.0425 16.6856 15.0721 15.7499C16.1438 14.7463 16.9217 13.4697 17.3221 12.0571C17.7574 10.521 17.8348 8.90561 17.5485 7.33492H9.17854V10.807H14.0259C13.929 11.3607 13.7214 11.8892 13.4155 12.3609C13.1096 12.8326 12.7117 13.2377 12.2456 13.552C11.6537 13.9435 10.9864 14.2069 10.2867 14.3254C9.58487 14.4559 8.86503 14.4559 8.16323 14.3254C7.45193 14.1783 6.77905 13.8848 6.18745 13.4634C5.23703 12.7906 4.5234 11.8348 4.14838 10.7324C3.76703 9.60938 3.76703 8.39187 4.14838 7.26883C4.41533 6.48163 4.85662 5.76489 5.43932 5.17211C6.10615 4.48128 6.95038 3.98748 7.87938 3.74487C8.80839 3.50226 9.78626 3.52023 10.7057 3.7968C11.424 4.01728 12.0808 4.40252 12.6239 4.9218C13.1704 4.37805 13.716 3.83289 14.2607 3.28633C14.542 2.99242 14.8485 2.71258 15.1256 2.41164C14.2967 1.64028 13.3237 1.04006 12.2624 0.64539C10.3298 -0.0563432 8.21523 -0.0752016 6.27041 0.591952Z" fill="white"/>
<path d="M6.27053 0.592147C8.21518 -0.07546 10.3298 -0.057098 12.2626 0.644179C13.324 1.04153 14.2965 1.64464 15.1243 2.41887C14.843 2.7198 14.5463 3.00105 14.2594 3.29355C13.7138 3.83824 13.1687 4.38105 12.624 4.92199C12.0809 4.40272 11.4241 4.01748 10.7058 3.79699C9.78668 3.51946 8.80883 3.50045 7.87959 3.74207C6.95034 3.98368 6.10559 4.47658 5.43803 5.16668C4.85532 5.75946 4.41403 6.4762 4.14709 7.2634L1.23193 5.00637C2.27538 2.93716 4.08205 1.35437 6.27053 0.592147Z" fill="#E33629"/>
<path d="M0.458429 7.24229C0.615115 6.46575 0.875246 5.71373 1.23187 5.00635L4.14702 7.269C3.76567 8.39204 3.76567 9.60956 4.14702 10.7326C3.17577 11.4826 2.20405 12.2363 1.23187 12.9938C0.339109 11.2168 0.0668339 9.19205 0.458429 7.24229Z" fill="#F8BD00"/>
<path d="M9.1786 7.3335H17.5486C17.8349 8.90418 17.7575 10.5196 17.3222 12.0557C16.9217 13.4682 16.1439 14.7449 15.0722 15.7485C14.1314 15.0144 13.1864 14.286 12.2456 13.5519C12.7121 13.2373 13.1102 12.8318 13.4161 12.3596C13.722 11.8875 13.9294 11.3584 14.0259 10.8041H9.1786C9.1772 9.64818 9.1786 8.49084 9.1786 7.3335Z" fill="#587DBD"/>
<path d="M1.23047 12.9937C2.20266 12.2437 3.17437 11.4899 4.14562 10.7324C4.52139 11.8352 5.23604 12.791 6.1875 13.4634C6.78095 13.8828 7.45528 14.174 8.1675 14.3184C8.8693 14.4489 9.58914 14.4489 10.2909 14.3184C10.9907 14.1999 11.6579 13.9365 12.2498 13.5449C13.1906 14.279 14.1356 15.0074 15.0764 15.7415C14.0469 16.6777 12.7918 17.3304 11.4342 17.6357C9.93573 17.988 8.37411 17.9711 6.88359 17.5865C5.70474 17.2717 4.60361 16.7169 3.64922 15.9566C2.63905 15.1546 1.814 14.1439 1.23047 12.9937Z" fill="#319F43"/>
</g>
<defs>
<clipPath id="clip0_162_2">
<rect width="18" height="18" fill="white"/>
</clipPath>
</defs>
</svg>
