<svg width="29" height="29" viewBox="0 0 29 29" fill="none" xmlns="http://www.w3.org/2000/svg">
<path d="M15.4064 8.45825C15.4064 8.2179 15.3109 7.98739 15.141 7.81744C14.971 7.64748 14.7405 7.552 14.5002 7.552C14.2598 7.552 14.0293 7.64748 13.8593 7.81744C13.6894 7.98739 13.5939 8.2179 13.5939 8.45825V13.5937H8.4585C8.21814 13.5937 7.98764 13.6891 7.81768 13.8591C7.64773 14.0291 7.55225 14.2596 7.55225 14.4999C7.55225 14.7403 7.64773 14.9708 7.81768 15.1407C7.98764 15.3107 8.21814 15.4062 8.4585 15.4062H13.5939V20.5416C13.5939 20.7819 13.6894 21.0124 13.8593 21.1824C14.0293 21.3524 14.2598 21.4478 14.5002 21.4478C14.7405 21.4478 14.971 21.3524 15.141 21.1824C15.3109 21.0124 15.4064 20.7819 15.4064 20.5416V15.4062H20.5418C20.7822 15.4062 21.0127 15.3107 21.1826 15.1407C21.3526 14.9708 21.4481 14.7403 21.4481 14.4999C21.4481 14.2596 21.3526 14.0291 21.1826 13.8591C21.0127 13.6891 20.7822 13.5937 20.5418 13.5937H15.4064V8.45825Z" fill="black"/>
</svg>
