<svg width="39" height="39" viewBox="0 0 39 39" fill="none" xmlns="http://www.w3.org/2000/svg">
<path fill-rule="evenodd" clip-rule="evenodd" d="M4.23672 9.29297H25.0367C25.4611 9.29297 25.868 9.46154 26.1681 9.7616C26.4681 10.0617 26.6367 10.4686 26.6367 10.893V28.493C26.6367 28.9173 26.4681 29.3243 26.1681 29.6243C25.868 29.9244 25.4611 30.093 25.0367 30.093H4.23672C3.81237 30.093 3.40541 29.9244 3.10535 29.6243C2.80529 29.3243 2.63672 28.9173 2.63672 28.493V10.893C2.63672 10.4686 2.80529 10.0617 3.10535 9.7616C3.40541 9.46154 3.81237 9.29297 4.23672 9.29297ZM28.2367 16.493L33.6367 12.173C33.872 11.9846 34.1556 11.8665 34.455 11.8323C34.7544 11.7981 35.0574 11.8491 35.3291 11.9795C35.6008 12.1099 35.8301 12.3144 35.9907 12.5694C36.1512 12.8244 36.2365 13.1196 36.2367 13.421V25.965C36.2365 26.2663 36.1512 26.5615 35.9907 26.8165C35.8301 27.0715 35.6008 27.276 35.3291 27.4064C35.0574 27.5368 34.7544 27.5878 34.455 27.5536C34.1556 27.5194 33.872 27.4013 33.6367 27.213L28.2367 22.893V16.493Z" fill="#D9D9D9"/>
</svg>
