<svg width="200" height="200" viewBox="0 0 200 200" fill="none" xmlns="http://www.w3.org/2000/svg">
<path d="M100 187.188C149.145 187.188 188.984 164.186 188.984 135.812C188.984 107.438 149.145 84.436 100 84.436C50.8556 84.436 11.0161 107.438 11.0161 135.812C11.0161 164.186 50.8556 187.188 100 187.188Z" fill="#F5F5F5"/>
<path d="M25.8441 154.512L31.7721 157.912C32.0817 158.07 32.4244 158.153 32.7721 158.153C33.1198 158.153 33.4625 158.07 33.7721 157.912L80.5161 130.912C81.0641 130.596 81.0641 130.084 80.5161 129.772L74.5161 126.4C74.2061 126.243 73.8635 126.162 73.5161 126.162C73.1687 126.162 72.8261 126.243 72.5161 126.4L25.8441 153.368C25.2961 153.684 25.2961 154.196 25.8441 154.512Z" fill="#E0E0E0"/>
<path d="M173.636 154.512L167.708 157.912C167.398 158.07 167.056 158.152 166.708 158.152C166.361 158.152 166.018 158.07 165.708 157.912L118.964 130.912C118.416 130.596 118.42 130.084 118.964 129.772L124.964 126.4C125.274 126.243 125.617 126.162 125.964 126.162C126.312 126.162 126.654 126.243 126.964 126.4L173.636 153.36C174.184 153.684 174.184 154.196 173.636 154.512Z" fill="#E0E0E0"/>
<path d="M168.948 137.696C168.948 137.696 169.236 131.636 171.924 126.768C174.612 121.9 178.528 118.72 182.344 118.164C186.16 117.608 189.492 120.932 185.544 123.628C181.596 126.324 174.468 129.272 171.712 138.56L168.948 137.696Z" fill="#848DF9"/>
<g opacity="0.2">
<path d="M168.948 137.696C168.948 137.696 169.236 131.636 171.924 126.768C174.612 121.9 178.528 118.72 182.344 118.164C186.16 117.608 189.492 120.932 185.544 123.628C181.596 126.324 174.468 129.272 171.712 138.56L168.948 137.696Z" fill="black"/>
</g>
<path d="M169.972 136.06H169.928C169.903 136.051 169.879 136.038 169.859 136.02C169.839 136.002 169.822 135.981 169.81 135.957C169.798 135.932 169.791 135.906 169.789 135.879C169.788 135.852 169.791 135.825 169.8 135.8C173.192 125.564 180.624 120.896 184.08 119.856C184.133 119.84 184.19 119.846 184.239 119.872C184.288 119.898 184.324 119.943 184.34 119.996C184.356 120.049 184.35 120.106 184.324 120.155C184.298 120.204 184.253 120.24 184.2 120.256C180.812 121.276 173.528 125.856 170.2 135.94C170.181 135.982 170.148 136.017 170.107 136.039C170.065 136.06 170.018 136.068 169.972 136.06Z" fill="white"/>
<path d="M190.98 135.86C190.668 136.716 189.78 137.212 188.98 137.608C188.18 138.004 187.264 138.428 186.856 139.244C186.056 140.896 187.7 143.032 186.816 144.644C186.605 144.969 186.331 145.248 186.009 145.464C185.687 145.68 185.325 145.828 184.944 145.9C184.316 146.031 183.682 146.13 183.044 146.196C182.741 146.214 182.436 146.214 182.132 146.196C181.248 146.124 180.292 146.148 179.52 146.648C178.32 147.448 178.02 149.048 177.332 150.344C176.906 151.102 176.321 151.758 175.616 152.267C174.912 152.776 174.105 153.126 173.252 153.292C172.688 153.404 171.652 153.576 171.04 153.292C170.997 153.274 170.955 153.251 170.916 153.224C170.832 153.14 170.724 153.032 170.676 152.972C170.628 152.912 170.676 152.948 170.652 152.936C170.372 152.136 170.684 151.244 170.652 150.392C170.652 150.336 170.652 150.288 170.652 150.236C170.548 149.248 170.456 148.268 170.368 147.28C170.203 145.467 170.07 143.649 169.968 141.828C169.904 140.648 169.676 139.364 170.1 138.228C170.576 136.968 171.948 136.852 172.392 135.616C172.568 135.124 172.644 134.604 172.812 134.108C173.078 133.378 173.54 132.735 174.146 132.25C174.753 131.764 175.482 131.455 176.252 131.356C178.652 131.076 180.928 132.876 183.316 132.556C183.936 132.464 184.516 132.236 185.132 132.084C187.056 131.592 189.34 131.996 190.544 133.572C190.795 133.89 190.966 134.265 191.042 134.663C191.118 135.061 191.097 135.472 190.98 135.86Z" fill="#848DF9"/>
<path d="M170.18 149.148H170.16C170.107 149.138 170.06 149.106 170.03 149.061C170 149.016 169.989 148.961 170 148.908C172.5 136.236 185.504 133.572 188.588 133.592C188.642 133.594 188.693 133.617 188.731 133.656C188.769 133.694 188.791 133.746 188.792 133.8C188.792 133.827 188.787 133.854 188.776 133.879C188.766 133.904 188.75 133.927 188.731 133.946C188.712 133.965 188.689 133.98 188.663 133.99C188.638 134 188.611 134.005 188.584 134.004C185.568 133.984 172.848 136.588 170.404 148.988C170.393 149.038 170.365 149.082 170.323 149.112C170.282 149.141 170.231 149.154 170.18 149.148Z" fill="white"/>
<path d="M184.34 141.88C184.299 141.874 184.26 141.856 184.228 141.828C182.948 140.858 181.469 140.182 179.898 139.849C178.326 139.515 176.7 139.533 175.136 139.9C175.11 139.906 175.083 139.906 175.057 139.902C175.03 139.897 175.005 139.887 174.982 139.873C174.96 139.858 174.94 139.839 174.925 139.817C174.909 139.795 174.898 139.77 174.892 139.744C174.887 139.718 174.886 139.691 174.891 139.664C174.896 139.638 174.905 139.612 174.92 139.59C174.934 139.567 174.953 139.548 174.975 139.532C174.997 139.517 175.022 139.506 175.048 139.5C176.676 139.12 178.368 139.105 180.002 139.454C181.637 139.803 183.174 140.508 184.504 141.52C184.537 141.55 184.559 141.589 184.568 141.632C184.577 141.675 184.571 141.72 184.553 141.76C184.535 141.8 184.505 141.833 184.466 141.854C184.428 141.876 184.384 141.885 184.34 141.88Z" fill="white"/>
<path d="M29.9642 136.344C29.7509 133.736 29.1496 131.174 28.1802 128.744C26.5802 124.832 23.5482 120.888 20.0402 120.144C16.5322 119.4 15.0402 121.764 15.7802 124.084C16.4202 126.084 19.0282 127.74 21.0082 129.484C22.9882 131.228 26.6882 135.44 27.7162 139.512L29.6962 139.728L29.9642 136.344Z" fill="#848DF9"/>
<g opacity="0.15">
<path d="M29.9642 136.344C29.7509 133.736 29.1496 131.174 28.1802 128.744C26.5802 124.832 23.5482 120.888 20.0402 120.144C16.5322 119.4 15.0402 121.764 15.7802 124.084C16.4202 126.084 19.0282 127.74 21.0082 129.484C22.9882 131.228 26.6882 135.44 27.7162 139.512L29.6962 139.728L29.9642 136.344Z" fill="black"/>
</g>
<path d="M28.6123 138.18C28.5556 138.179 28.5013 138.156 28.4605 138.117C28.4197 138.078 28.3953 138.024 28.3923 137.968C28.0243 127.732 18.0163 122.012 17.9123 121.968C17.8592 121.939 17.8197 121.891 17.8025 121.833C17.7852 121.775 17.7916 121.713 17.8203 121.66C17.8489 121.607 17.8975 121.567 17.9552 121.55C18.013 121.533 18.0752 121.539 18.1283 121.568C18.2323 121.628 28.4563 127.472 28.8363 137.968C28.8374 138.027 28.8153 138.083 28.7749 138.126C28.7345 138.169 28.679 138.194 28.6203 138.196L28.6123 138.18Z" fill="white"/>
<path d="M28.7282 152.168C28.7282 152.168 26.6802 153.46 23.4842 152.912C22.4512 152.777 21.4877 152.317 20.7322 151.6C19.9082 150.748 19.7762 149.892 19.5322 148.752C19.4689 148.276 19.3053 147.82 19.0522 147.412C18.3642 146.468 16.9962 146.484 15.8522 146.24C14.2522 145.892 12.7482 144.728 12.2802 143.144C11.8122 141.56 12.5722 139.624 14.1042 139L12.2242 137.8C11.6423 137.458 11.1049 137.046 10.6242 136.572C10.1422 136.088 9.85712 135.442 9.82422 134.76C9.85458 134.26 10.0258 133.778 10.3181 133.371C10.6104 132.964 11.0119 132.648 11.4762 132.46C12.4135 132.1 13.4297 131.997 14.4202 132.16C15.4218 132.279 16.4067 132.511 17.3562 132.852C17.6152 132.97 17.8958 133.032 18.1802 133.036C18.557 132.972 18.9095 132.808 19.2002 132.56C21.3522 131.14 24.8562 131.248 26.0002 133.924C26.1722 134.324 26.2722 134.724 26.4522 135.124C27.1242 136.564 29.0042 136.132 30.2162 136.804C30.5999 137.044 30.9258 137.367 31.1706 137.748C31.4153 138.129 31.573 138.559 31.6322 139.008C31.8722 140.436 31.4762 142.06 31.2322 143.472C30.9882 144.884 30.6362 146.192 30.2522 147.528C29.9402 148.632 29.5962 149.724 29.2282 150.808C29.1242 151.052 28.9522 152.024 28.7282 152.168Z" fill="#848DF9"/>
<path d="M30.0002 148.868C28.9259 145.917 27.1639 143.265 24.8602 141.132C24.8365 141.082 24.7952 141.042 24.7442 141.02C24.0804 140.396 23.3848 139.808 22.6602 139.256C22.3885 137.359 22.6331 135.425 23.3682 133.656C23.3806 133.63 23.3876 133.601 23.389 133.572C23.3903 133.543 23.3859 133.514 23.3761 133.487C23.3663 133.46 23.3511 133.434 23.3316 133.413C23.3121 133.392 23.2885 133.374 23.2622 133.362C23.236 133.349 23.2075 133.342 23.1785 133.341C23.1495 133.34 23.1206 133.344 23.0933 133.354C23.066 133.364 23.0409 133.379 23.0194 133.398C22.998 133.418 22.9806 133.442 22.9682 133.468C22.2463 135.177 21.971 137.043 22.1682 138.888C19.2217 136.764 15.9535 135.127 12.4882 134.04C12.4604 134.032 12.4312 134.03 12.4026 134.034C12.3739 134.037 12.3462 134.047 12.3212 134.061C12.2962 134.076 12.2744 134.095 12.257 134.118C12.2397 134.141 12.2272 134.168 12.2202 134.196C12.2123 134.223 12.21 134.252 12.2134 134.281C12.2168 134.309 12.2259 134.337 12.24 134.362C12.2542 134.387 12.2732 134.409 12.2958 134.426C12.3185 134.444 12.3445 134.456 12.3722 134.464C12.4642 134.492 18.7082 136.26 23.8602 140.804C20.7002 140.248 16.9242 141.776 16.7522 141.848C16.7047 141.867 16.6654 141.902 16.6411 141.947C16.6167 141.992 16.6088 142.044 16.6188 142.095C16.6287 142.145 16.6559 142.19 16.6956 142.222C16.7353 142.255 16.785 142.272 16.8362 142.272C16.8639 142.278 16.8925 142.278 16.9202 142.272C16.9642 142.252 21.3962 140.46 24.5202 141.432C26.79 143.525 28.5263 146.131 29.5842 149.032C29.5997 149.075 29.6279 149.112 29.6651 149.138C29.7022 149.165 29.7466 149.179 29.7922 149.18H29.8642C29.8951 149.17 29.9237 149.154 29.9478 149.133C29.9719 149.111 29.9911 149.085 30.004 149.055C30.017 149.025 30.0233 148.993 30.0226 148.961C30.022 148.929 30.0143 148.897 30.0002 148.868Z" fill="white"/>
<path d="M22.9118 72.46C22.3617 73.0843 21.6504 73.5451 20.8558 73.792L20.7718 73.812H20.7078L20.5678 73.836H20.4078H20.3038C20.288 73.8401 20.2715 73.8401 20.2558 73.836C19.9367 73.8373 19.6245 73.7431 19.3594 73.5656C19.0942 73.3882 18.8882 73.1355 18.7678 72.84C18.6528 72.577 18.5799 72.2976 18.5518 72.012C18.6758 71.956 18.7998 71.888 18.9278 71.816C19.8505 71.2142 20.6183 70.4032 21.1688 69.449C21.7192 68.4947 22.0368 67.4241 22.0958 66.324C22.0958 66.172 22.0958 66.028 22.0958 65.896C22.4452 65.7295 22.8288 65.6473 23.2158 65.656H23.2838H23.3398C23.3596 65.6521 23.3799 65.6521 23.3998 65.656C23.6743 65.6974 23.9334 65.8095 24.1515 65.9813C24.3696 66.1531 24.5393 66.3787 24.6438 66.636C25.2958 68.168 24.5278 70.756 22.9118 72.46Z" fill="#848DF9"/>
<path d="M28.7718 67.652C28.7405 67.637 28.7064 67.6289 28.6718 67.628L27.3198 67.552C27.2902 67.5531 27.2607 67.5482 27.2331 67.5376C27.2055 67.5271 27.1803 67.511 27.159 67.4905C27.1377 67.47 27.1208 67.4453 27.1093 67.4181C27.0977 67.3909 27.0918 67.3616 27.0918 67.332C27.1118 67.116 27.1198 66.904 27.1238 66.7C27.1255 66.4756 27.1148 66.2513 27.0918 66.028C27.096 65.8814 27.1496 65.7405 27.2438 65.628L28.7518 63.796C28.7977 63.7463 28.8302 63.6857 28.8463 63.6199C28.8624 63.5541 28.8615 63.4854 28.8438 63.42L28.1278 61.82C28.1186 61.7997 28.1032 61.7829 28.0838 61.772C28.0424 61.7582 27.9978 61.7577 27.9562 61.7707C27.9145 61.7836 27.878 61.8092 27.8518 61.844L26.2518 63.316C26.2088 63.3648 26.1504 63.3974 26.0864 63.4083C26.0223 63.4192 25.9565 63.4078 25.8998 63.376C25.6924 63.2081 25.4603 63.0732 25.2118 62.976C25.1563 62.9555 25.1096 62.9164 25.0797 62.8653C25.0498 62.8143 25.0385 62.7545 25.0478 62.696L25.5438 60.436C25.5514 60.4056 25.5489 60.3735 25.5366 60.3446C25.5244 60.3157 25.503 60.2917 25.4758 60.276C25.4296 60.2545 25.3784 60.2462 25.3278 60.252L23.7278 60.408C23.6552 60.4169 23.5859 60.4435 23.526 60.4853C23.466 60.5271 23.4172 60.583 23.3838 60.648L22.5278 62.944C22.4535 63.0901 22.3324 63.207 22.1838 63.276C21.8402 63.4371 21.5111 63.6271 21.1998 63.844C21.0638 63.932 20.9158 63.94 20.8598 63.844L20.0598 62.608C20.0038 62.52 19.8718 62.54 19.7678 62.648L18.0358 64.48C17.986 64.5291 17.9478 64.5887 17.9243 64.6545C17.9007 64.7203 17.8924 64.7905 17.8998 64.86L18.3838 66.492C18.4041 66.6316 18.3728 66.7738 18.2958 66.892C18.0025 67.3361 17.7353 67.7969 17.4958 68.272C17.4111 68.4111 17.2767 68.5126 17.1198 68.556L15.6358 68.912C15.5617 68.9291 15.4927 68.9633 15.4343 69.0119C15.376 69.0606 15.3299 69.1223 15.2998 69.192L14.5518 71.704C14.5439 71.7315 14.5428 71.7604 14.5486 71.7883C14.5543 71.8162 14.5668 71.8423 14.5849 71.8644C14.603 71.8864 14.6262 71.9037 14.6525 71.9148C14.6788 71.9259 14.7074 71.9305 14.7358 71.928L16.0918 72.008C16.1215 72.0064 16.1512 72.0109 16.1791 72.0212C16.207 72.0316 16.2324 72.0476 16.2538 72.0683C16.2752 72.0889 16.2921 72.1138 16.3035 72.1413C16.3148 72.1688 16.3204 72.1983 16.3198 72.228C16.2818 72.6619 16.2818 73.0982 16.3198 73.532C16.3188 73.6779 16.2679 73.819 16.1758 73.932L14.6638 75.764C14.6179 75.8138 14.5854 75.8744 14.5693 75.9402C14.5532 76.0059 14.554 76.0747 14.5718 76.14L15.2878 77.74C15.2981 77.7607 15.3132 77.7785 15.3318 77.792C15.35 77.7979 15.3696 77.7979 15.3878 77.792C15.4549 77.7871 15.5177 77.7572 15.5638 77.708L17.1638 76.232C17.2072 76.1839 17.2659 76.1521 17.3299 76.142C17.3939 76.1318 17.4595 76.1438 17.5158 76.176C17.7226 76.3448 17.9548 76.4798 18.2038 76.576C18.26 76.5967 18.3073 76.6364 18.3372 76.6883C18.3672 76.7402 18.378 76.801 18.3678 76.86L17.8678 79.12C17.862 79.1493 17.8654 79.1796 17.8776 79.2069C17.8898 79.2341 17.9101 79.2569 17.9358 79.272C17.9808 79.297 18.0327 79.3068 18.0838 79.3L19.6838 79.144C19.7563 79.1351 19.8256 79.1086 19.8856 79.0668C19.9456 79.025 19.9944 78.9691 20.0278 78.904L20.8838 76.608C20.9588 76.4616 21.0796 76.3436 21.2278 76.272C21.4006 76.1935 21.5688 76.1054 21.7318 76.008C21.8878 75.916 22.0478 75.816 22.2078 75.708C22.3678 75.6 22.4878 75.612 22.5438 75.708L23.3438 76.94C23.354 76.9551 23.3677 76.9675 23.3838 76.976C23.4478 77.02 23.5518 76.976 23.6358 76.9L25.3678 75.072C25.4209 75.0213 25.4607 74.9583 25.4837 74.8885C25.5067 74.8188 25.5122 74.7444 25.4998 74.672L25.0198 73.036C24.9959 72.8963 25.0275 72.7528 25.1078 72.636C25.4034 72.1921 25.6706 71.7298 25.9078 71.252C25.9524 71.181 26.0107 71.1197 26.0794 71.0716C26.1481 71.0235 26.2258 70.9896 26.3078 70.972L27.7878 70.616C27.8618 70.599 27.9308 70.5648 27.9892 70.5162C28.0476 70.4675 28.0937 70.4058 28.1238 70.336L28.8718 67.824C28.875 67.7885 28.8671 67.7529 28.8492 67.7221C28.8313 67.6913 28.8042 67.6668 28.7718 67.652ZM20.8598 73.792L20.7718 73.812H20.7078L20.5678 73.836H20.4038H20.2558C19.9362 73.837 19.6238 73.7423 19.3586 73.564C19.0934 73.3858 18.8876 73.1323 18.7678 72.836C18.6524 72.5732 18.5795 72.2937 18.5518 72.008C18.5356 71.8552 18.5276 71.7017 18.5278 71.548C18.6246 69.8669 19.3182 68.2755 20.4838 67.06C20.8359 66.6822 21.24 66.3563 21.6838 66.092C21.8129 66.0162 21.9465 65.948 22.0838 65.888C22.4341 65.7246 22.8173 65.6439 23.2038 65.652H23.2718H23.3278H23.3918C23.6656 65.6941 23.9239 65.8065 24.1412 65.9782C24.3586 66.15 24.5276 66.3753 24.6318 66.632C25.2998 68.112 24.5318 70.696 22.9158 72.404C22.3737 73.0499 21.6614 73.5308 20.8598 73.792Z" fill="#F5F5F5"/>
<path d="M22.5119 62.956C22.4329 63.0941 22.3145 63.2055 22.1719 63.276C21.832 63.4367 21.5068 63.6268 21.1999 63.844C21.0639 63.932 20.9159 63.94 20.8599 63.844L20.0599 62.612C20.0507 62.5961 20.0367 62.5835 20.0199 62.576L18.5039 61.7C18.6668 61.6026 18.8351 61.5145 19.0079 61.436L19.0639 61.404C19.1237 61.3667 19.1787 61.3224 19.2279 61.272L19.2879 61.208C19.3013 61.1939 19.3121 61.1777 19.3199 61.16L19.3439 61.116L22.5119 62.956Z" fill="#EBEBEB"/>
<path d="M18.4 66.552C18.4027 66.6737 18.3693 66.7934 18.304 66.896C18.0114 67.3405 17.7443 67.8012 17.504 68.276C17.4842 68.3156 17.4586 68.352 17.428 68.384L14.228 66.54C14.245 66.5248 14.2598 66.5073 14.272 66.488C14.2879 66.4713 14.3014 66.4525 14.312 66.432C14.5492 65.9542 14.8164 65.492 15.112 65.048C15.1278 65.0255 15.1412 65.0013 15.152 64.976C15.152 64.976 15.152 64.944 15.152 64.928C15.1538 64.9188 15.1538 64.9093 15.152 64.9C15.1534 64.8774 15.1534 64.8547 15.152 64.832C15.1578 64.7976 15.1578 64.7624 15.152 64.728L18.4 66.552Z" fill="#EBEBEB"/>
<path d="M18.4798 61.6961L16.8238 60.7361C16.8021 60.723 16.7772 60.7161 16.7518 60.7161C16.7168 60.7186 16.6827 60.7285 16.6517 60.745C16.6207 60.7616 16.5935 60.7844 16.5718 60.8121L15.5358 61.9081L14.8398 62.6401C14.7829 62.7019 14.7405 62.7757 14.7158 62.8561L17.1518 64.2561L17.9078 64.6881C17.9336 64.6138 17.9744 64.5457 18.0278 64.4881L18.0518 64.4641L19.7598 62.6561C19.7876 62.6206 19.825 62.5939 19.8675 62.579C19.9101 62.5641 19.956 62.5617 19.9998 62.5721L18.4798 61.6961Z" fill="#F5F5F5"/>
<path d="M25.4318 60.272C25.39 60.2505 25.3421 60.2434 25.2958 60.2521L23.6958 60.4081C23.5986 60.4194 23.5075 60.4614 23.4358 60.5281L20.2358 58.6881C20.3061 58.6187 20.3977 58.575 20.4958 58.5641L22.0958 58.4081C22.1495 58.3995 22.2045 58.4093 22.2518 58.4361L22.6758 58.6841L22.8878 58.8041L24.2398 59.6041L24.5718 59.7961L24.8158 59.9361L25.4318 60.272Z" fill="#F5F5F5"/>
<path d="M17.4079 68.3999C17.3253 68.4822 17.2236 68.5427 17.1119 68.5759L15.6279 68.9319C15.5196 68.9577 15.4227 69.0181 15.3519 69.1039L12.1519 67.2679C12.2246 67.1779 12.324 67.1135 12.4359 67.0839L13.9199 66.7279C14.0307 66.7002 14.1309 66.6404 14.2079 66.5559L17.4079 68.3999Z" fill="#E6E6E6"/>
<path d="M16.28 73.716C16.2535 73.7951 16.2143 73.8694 16.164 73.936L14.652 75.768C14.6084 75.8225 14.5758 75.885 14.556 75.952L11.356 74.108C11.3724 74.0385 11.4053 73.974 11.452 73.92L12.964 72.088C13.0143 72.0243 13.0535 71.9527 13.08 71.876L16.28 73.716Z" fill="#E6E6E6"/>
<path d="M12.188 70.4961L12.232 70.5241L12.176 70.4881L12.064 70.4241L12.188 70.4961Z" fill="#E0E0E0"/>
<path d="M22.9118 72.46C22.3617 73.0843 21.6504 73.5451 20.8558 73.792L20.7718 73.812H20.7078L20.5678 73.836H20.4078H20.3038C20.288 73.8401 20.2715 73.8401 20.2558 73.836C19.9367 73.8373 19.6245 73.7431 19.3594 73.5656C19.0942 73.3882 18.8882 73.1355 18.7678 72.84C18.6528 72.577 18.5799 72.2976 18.5518 72.012C18.6758 71.956 18.7998 71.888 18.9278 71.816C19.8505 71.2142 20.6183 70.4032 21.1688 69.449C21.7192 68.4947 22.0368 67.4241 22.0958 66.324C22.0958 66.172 22.0958 66.028 22.0958 65.896C22.4452 65.7295 22.8288 65.6473 23.2158 65.656H23.2838H23.3398C23.3596 65.6521 23.3799 65.6521 23.3998 65.656C23.6743 65.6974 23.9334 65.8095 24.1515 65.9813C24.3696 66.1531 24.5393 66.3787 24.6438 66.636C25.2958 68.168 24.5278 70.756 22.9118 72.46Z" fill="#E0E0E0"/>
<path d="M18.3997 66.552L15.1997 64.712C15.2036 64.6921 15.2036 64.6718 15.1997 64.652L14.7157 63.02C14.7002 62.9664 14.7002 62.9095 14.7157 62.856L17.1517 64.256L17.9077 64.688C17.8907 64.7468 17.8907 64.8092 17.9077 64.868L18.3917 66.5C18.3966 66.5169 18.3993 66.5344 18.3997 66.552Z" fill="#E0E0E0"/>
<path d="M23.4559 60.5281C23.4196 60.5616 23.391 60.6025 23.3719 60.6481L22.5159 62.9441L19.3159 61.1001L20.1839 58.8001C20.2007 58.7544 20.2298 58.7143 20.2679 58.6841L23.4559 60.5281Z" fill="#E0E0E0"/>
<path d="M28.0561 61.7679C28.0159 61.7592 27.9742 61.7617 27.9354 61.7751C27.8966 61.7885 27.8622 61.8123 27.836 61.8439L26.236 63.3199C26.192 63.3684 26.133 63.4006 26.0684 63.4115C26.0039 63.4224 25.9375 63.4113 25.88 63.3799C25.6727 63.2119 25.4406 63.077 25.1921 62.9799C25.1366 62.9594 25.0899 62.9203 25.06 62.8692C25.0301 62.8182 25.0188 62.7583 25.0281 62.6999L25.5241 60.4399C25.5324 60.4095 25.5302 60.3771 25.5179 60.3481C25.5056 60.319 25.4838 60.295 25.4561 60.2799L24.8521 59.9279C24.8705 59.9238 24.8896 59.9238 24.9081 59.9279L24.9441 59.9519L28.0561 61.7679Z" fill="#E0E0E0"/>
<path d="M28.764 67.6479C28.7327 67.6329 28.6986 67.6247 28.664 67.6239L27.312 67.5479C27.2824 67.549 27.253 67.5441 27.2253 67.5335C27.1977 67.5229 27.1725 67.5069 27.1512 67.4864C27.1299 67.4658 27.113 67.4412 27.1015 67.414C27.0899 67.3868 27.084 67.3575 27.084 67.3279C27.104 67.1119 27.116 66.8999 27.116 66.6919L28.764 67.6479Z" fill="#E0E0E0"/>
<path d="M12.1559 67.252C12.134 67.2813 12.1164 67.3136 12.1039 67.3479L12.0119 67.6599L11.5239 69.3L11.3599 69.8599C11.3501 69.8898 11.3501 69.9221 11.3599 69.952C11.3641 69.9701 11.3708 69.9876 11.3799 70.0039C11.3922 70.0183 11.4056 70.0316 11.4199 70.044H11.4439L11.6959 70.1919L11.7639 70.228L11.9639 70.34L12.0679 70.4039L12.1919 70.476L12.2359 70.5039L12.3679 70.576L13.0879 70.976L14.6079 71.856C14.5774 71.8365 14.5542 71.8075 14.5419 71.7735C14.5296 71.7395 14.5289 71.7024 14.5399 71.668L15.1999 69.5039L15.2919 69.1919C15.3057 69.1541 15.326 69.1189 15.3519 69.088L12.1559 67.252Z" fill="#E0E0E0"/>
<path d="M23.388 76.9801L21.728 76.0001C21.884 75.9081 22.044 75.8081 22.204 75.7001C22.364 75.5921 22.484 75.6041 22.54 75.7001L23.34 76.9361C23.3513 76.9552 23.368 76.9705 23.388 76.9801Z" fill="#E0E0E0"/>
<path d="M18.3997 76.86L17.8997 79.124C17.8939 79.1533 17.8973 79.1836 17.9095 79.2109C17.9217 79.2381 17.942 79.2609 17.9677 79.276L15.4077 77.796C15.4743 77.789 15.5364 77.7594 15.5837 77.712L17.1837 76.24C17.2266 76.1912 17.2847 76.1584 17.3486 76.1467C17.4125 76.1351 17.4784 76.1454 17.5357 76.176C17.7417 76.346 17.9741 76.4811 18.2237 76.576C18.2827 76.5937 18.3331 76.6323 18.3655 76.6847C18.398 76.737 18.4101 76.7994 18.3997 76.86Z" fill="#E0E0E0"/>
<path d="M16.3081 73.5361C16.3127 73.5975 16.3031 73.6591 16.2801 73.7161L13.0801 71.8761C13.1013 71.8172 13.1108 71.7547 13.1081 71.6921C13.1081 71.4721 13.0801 71.2481 13.0801 71.0161L14.6001 71.8961C14.6334 71.9138 14.6704 71.9234 14.7081 71.9241L16.0641 72.0001C16.094 71.999 16.1238 72.004 16.1517 72.0149C16.1796 72.0257 16.205 72.0421 16.2263 72.063C16.2476 72.084 16.2645 72.1091 16.2758 72.1368C16.2871 72.1645 16.2926 72.1942 16.2921 72.2241C16.259 72.6611 16.2643 73.1001 16.3081 73.5361Z" fill="#E0E0E0"/>
<path d="M15.3159 77.7761L14.6679 77.4001L14.5439 77.3321L13.4999 76.7241L13.2159 76.5641L12.1439 75.9401C12.1343 75.9357 12.126 75.9288 12.1199 75.9201C12.1105 75.9114 12.1036 75.9004 12.0999 75.8881L11.3799 74.2881C11.3656 74.2453 11.3656 74.1989 11.3799 74.1561C11.3799 74.1561 11.3799 74.1201 11.3799 74.1001L14.5799 75.9441C14.5575 76.0048 14.5575 76.0714 14.5799 76.1321L15.2959 77.7321C15.2996 77.7479 15.3064 77.7629 15.3159 77.7761Z" fill="#E0E0E0"/>
<path d="M41.9361 41.8319C41.8938 41.8106 41.8474 41.7983 41.8001 41.7959L39.9401 41.6919C39.8994 41.6936 39.8587 41.6869 39.8206 41.6723C39.7826 41.6577 39.7479 41.6355 39.7187 41.6071C39.6895 41.5786 39.6664 41.5445 39.6508 41.5068C39.6352 41.4692 39.6275 41.4287 39.6281 41.3879C39.6521 41.0959 39.6681 40.8039 39.6721 40.5199C39.671 40.2126 39.6536 39.9055 39.6201 39.5999C39.6258 39.3998 39.6975 39.2071 39.8241 39.0519L41.9001 36.5399C41.9622 36.4703 42.0064 36.3865 42.0287 36.2958C42.051 36.2052 42.0508 36.1105 42.0281 36.0199L41.0401 33.8399C41.0294 33.8105 41.008 33.7862 40.9801 33.7719C40.9234 33.7562 40.8633 33.7573 40.8073 33.7751C40.7512 33.7928 40.7014 33.8265 40.6641 33.8719L38.4441 35.8959C38.3837 35.9611 38.3034 36.0044 38.2158 36.0188C38.1282 36.0333 38.0382 36.0182 37.9601 35.9759C37.6757 35.7434 37.3556 35.5583 37.0121 35.4279C36.9341 35.3977 36.8691 35.3412 36.8282 35.2682C36.7873 35.1952 36.7731 35.1103 36.7881 35.0279L37.4721 31.9239C37.4846 31.8823 37.4822 31.8376 37.4654 31.7975C37.4487 31.7574 37.4185 31.7243 37.3801 31.7039C37.3162 31.6704 37.2435 31.6578 37.1721 31.6679L35.0041 31.8839C34.9037 31.8948 34.8078 31.9309 34.7252 31.989C34.6427 32.0471 34.5762 32.1252 34.5321 32.2159L33.3441 35.3599C33.2405 35.5606 33.073 35.7211 32.8681 35.8159C32.4009 36.039 31.9528 36.2999 31.5281 36.5959C31.3441 36.7159 31.1281 36.7239 31.0601 36.5959L29.9521 34.9039C29.8721 34.7839 29.6961 34.8079 29.5521 34.9559L27.1721 37.4799C27.1031 37.5464 27.0506 37.6279 27.0186 37.7182C26.9867 37.8085 26.9762 37.9049 26.9881 37.9999L27.6481 40.2479C27.6777 40.4366 27.6349 40.6296 27.5281 40.7879C27.1247 41.3985 26.7586 42.033 26.4321 42.6879C26.319 42.8836 26.1338 43.0272 25.9161 43.0879L23.8801 43.5759C23.7772 43.6025 23.6819 43.6524 23.6014 43.7218C23.5209 43.7912 23.4575 43.8781 23.4161 43.9759L22.4001 47.3999C22.3899 47.4377 22.3889 47.4773 22.397 47.5156C22.4051 47.5539 22.4221 47.5897 22.4467 47.6201C22.4712 47.6505 22.5027 47.6747 22.5384 47.6906C22.5741 47.7066 22.613 47.7139 22.6521 47.7119L24.5161 47.8159C24.5567 47.8149 24.5971 47.8219 24.6349 47.8367C24.6727 47.8515 24.7072 47.8738 24.7362 47.9021C24.7653 47.9304 24.7884 47.9643 24.8042 48.0017C24.82 48.0391 24.8281 48.0793 24.8281 48.1199C24.7741 48.7161 24.7741 49.3158 24.8281 49.9119C24.8266 50.1122 24.756 50.3058 24.6281 50.4599L22.5521 52.9759C22.489 53.0442 22.4442 53.1273 22.4219 53.2175C22.3995 53.3077 22.4003 53.4021 22.4241 53.4919L23.4121 55.6719C23.4168 55.6868 23.4246 55.7006 23.4349 55.7123C23.4452 55.724 23.4579 55.7334 23.4721 55.7399C23.4968 55.7476 23.5233 55.7476 23.5481 55.7399C23.6391 55.7333 23.7245 55.6935 23.7881 55.6279L26.0001 53.6239C26.0604 53.5588 26.1407 53.5155 26.2284 53.501C26.316 53.4865 26.406 53.5016 26.4841 53.5439C26.7705 53.7747 27.0901 53.9608 27.4321 54.0959C27.5115 54.1242 27.5781 54.1803 27.6193 54.2538C27.6605 54.3274 27.6735 54.4134 27.6561 54.4959L26.9761 57.5999C26.9653 57.64 26.9681 57.6826 26.984 57.7209C26.9999 57.7593 27.0281 57.7913 27.0641 57.8119C27.1264 57.8457 27.198 57.8583 27.2681 57.8479L29.4361 57.6359C29.5365 57.6236 29.6324 57.5869 29.7153 57.5291C29.7983 57.4712 29.8658 57.3939 29.9121 57.3039L31.0881 54.1519C31.1909 53.9511 31.3567 53.7896 31.5601 53.6919C31.7881 53.5839 32.0201 53.4639 32.2521 53.3279C32.4841 53.1919 32.6841 53.0639 32.9041 52.9279C33.1241 52.7919 33.3041 52.7959 33.3681 52.9279L34.4801 54.6239C34.4922 54.6448 34.5103 54.6615 34.5321 54.6719C34.6241 54.7279 34.7601 54.6919 34.8761 54.5679L37.2761 52.0519C37.3446 51.9852 37.3968 51.9035 37.4287 51.8134C37.4606 51.7232 37.4713 51.6269 37.4601 51.5319L36.8001 49.2559C36.7712 49.0667 36.8155 48.8736 36.9241 48.7159C37.3212 48.0997 37.6805 47.4598 38.0001 46.7999C38.056 46.7022 38.1308 46.6165 38.22 46.5479C38.3093 46.4792 38.4113 46.4289 38.5201 46.3999L40.5561 45.9079C40.6593 45.8832 40.755 45.8339 40.835 45.7642C40.9151 45.6946 40.9772 45.6067 41.0161 45.5079L42.0441 42.0599C42.0511 42.0155 42.0445 41.97 42.0252 41.9293C42.006 41.8886 41.9749 41.8547 41.9361 41.8319ZM31.0641 50.2639L30.9441 50.2919C30.9162 50.2956 30.888 50.2956 30.8601 50.2919L30.6681 50.3239L30.4441 50.3479H30.2401C29.8008 50.3518 29.3706 50.2229 29.0059 49.9781C28.6412 49.7332 28.3589 49.3839 28.1961 48.9759C28.0378 48.6137 27.9366 48.2292 27.8961 47.8359C27.8712 47.6276 27.8605 47.4178 27.8641 47.2079C27.8641 45.2399 28.8881 42.8079 30.5521 41.0439C31.035 40.5251 31.5884 40.0767 32.1961 39.7119C32.3725 39.6068 32.5555 39.5133 32.7441 39.4319C33.224 39.2059 33.7497 39.0937 34.2801 39.1039H34.3761H34.4561H34.5401C34.9175 39.1592 35.2736 39.3129 35.5728 39.5496C35.8719 39.7862 36.1034 40.0974 36.2441 40.4519C37.1641 42.4839 36.1081 46.0519 33.8881 48.3799C33.1405 49.2586 32.1625 49.9111 31.0641 50.2639Z" fill="#F5F5F5"/>
<path d="M33.3358 35.3761C33.231 35.5692 33.067 35.7234 32.8678 35.8161C32.4015 36.0393 31.9535 36.2987 31.5278 36.5921C31.3438 36.7161 31.1278 36.7281 31.0598 36.5921L29.9558 34.9001C29.942 34.8767 29.921 34.8584 29.8958 34.8481L28.7998 34.2081C29.0318 34.0761 29.2598 33.9521 29.4878 33.8481L29.5678 33.8041C29.65 33.7541 29.7253 33.6936 29.7918 33.6241C29.8229 33.5964 29.8511 33.5656 29.8758 33.5321C29.893 33.5141 29.9078 33.4939 29.9198 33.4721L29.9518 33.4121L33.3358 35.3761Z" fill="#EBEBEB"/>
<path d="M27.6599 40.3161C27.6638 40.4818 27.6178 40.6448 27.5279 40.7841C27.1259 41.3956 26.76 42.03 26.4319 42.6841C26.4035 42.7374 26.3671 42.7859 26.3239 42.8281L22.9199 40.8641C22.9444 40.8431 22.9659 40.8189 22.9839 40.7921C23.003 40.768 23.0204 40.7426 23.0359 40.7161C23.3576 40.0542 23.7224 39.4142 24.1279 38.8001C24.1499 38.7709 24.1675 38.7385 24.1799 38.7041C24.194 38.6823 24.2036 38.6578 24.2079 38.6321C24.2101 38.6202 24.2101 38.608 24.2079 38.5961C24.2079 38.5641 24.2079 38.5321 24.2079 38.5041C24.2176 38.4566 24.2176 38.4076 24.2079 38.3601L27.6599 40.3161Z" fill="#EBEBEB"/>
<path d="M28.8 34.208L26.524 32.892C26.4951 32.8744 26.4619 32.8647 26.428 32.864C26.3786 32.8674 26.3304 32.8809 26.2864 32.9036C26.2424 32.9263 26.2035 32.9578 26.172 32.996L24.748 34.5L23.792 35.508C23.7142 35.5941 23.6568 35.6967 23.624 35.808L25.988 37.16L27.028 37.756C27.0613 37.6529 27.1174 37.5586 27.192 37.48L27.224 37.448L29.572 34.964C29.6097 34.9151 29.6607 34.8781 29.7189 34.8575C29.7771 34.837 29.84 34.8337 29.9 34.848L28.8 34.208Z" fill="#F5F5F5"/>
<path d="M37.3519 31.688C37.2931 31.6614 37.228 31.6517 37.1639 31.66L34.9919 31.876C34.8595 31.8936 34.7354 31.9508 34.6359 32.04L31.2319 30.076C31.3315 29.9839 31.4574 29.9252 31.5919 29.908L33.7639 29.692C33.8371 29.6807 33.9119 29.6949 33.9759 29.732L34.5599 30.072L34.8479 30.24L35.7239 30.748L36.1839 31.016C36.2999 31.076 36.4119 31.144 36.5159 31.204L37.3519 31.688Z" fill="#F5F5F5"/>
<path d="M26.3241 42.8319C26.215 42.9468 26.0768 43.0297 25.9241 43.0719L23.8841 43.5639C23.7373 43.6013 23.6067 43.6856 23.5121 43.8039L20.1001 41.8439C20.2019 41.718 20.3426 41.6294 20.5001 41.5919L22.5361 41.1039C22.6882 41.0627 22.8264 40.9811 22.9361 40.8679L26.3241 42.8319Z" fill="#E6E6E6"/>
<path d="M24.7758 50.16C24.7405 50.2695 24.6849 50.3713 24.6118 50.46L22.5398 52.976C22.4789 53.0501 22.434 53.1359 22.4078 53.228L19.0078 51.264C19.0307 51.1702 19.0745 51.0827 19.1358 51.008L21.2158 48.492C21.2855 48.4038 21.3384 48.3035 21.3718 48.196L24.7758 50.16Z" fill="#E6E6E6"/>
<path d="M20.1319 46.3001L20.1959 46.3401L20.1159 46.2921L19.9639 46.2041L20.1319 46.3001Z" fill="#E0E0E0"/>
<path d="M33.884 48.4359C33.1354 49.2899 32.167 49.9221 31.084 50.2639L30.964 50.2919C30.9361 50.2956 30.9079 50.2956 30.88 50.2919L30.688 50.3239C30.6138 50.3358 30.5391 50.3439 30.464 50.3479H30.256C29.8172 50.3521 29.3874 50.2232 29.0232 49.9783C28.6591 49.7334 28.3776 49.3839 28.216 48.9759C28.0572 48.6139 27.956 48.2292 27.916 47.8359C28.084 47.7599 28.256 47.6679 28.432 47.5719C30.832 46.1799 32.788 42.8039 32.788 40.0239C32.788 39.8159 32.788 39.6239 32.764 39.4319C33.2442 39.207 33.7699 39.0961 34.3 39.1079H34.396H34.472C34.4999 39.104 34.5282 39.104 34.556 39.1079C34.9334 39.1629 35.2897 39.316 35.5894 39.5519C35.8892 39.7877 36.1218 40.098 36.264 40.4519C37.164 42.5359 36.108 46.0919 33.884 48.4359Z" fill="#E0E0E0"/>
<path d="M27.66 40.3161L24.256 38.3561C24.26 38.3296 24.26 38.3026 24.256 38.2761L23.6 36.0321C23.5787 35.959 23.5787 35.8812 23.6 35.8081L25.964 37.1601L27.004 37.7561C26.9733 37.835 26.965 37.9208 26.98 38.0041L27.644 40.2441C27.6536 40.267 27.659 40.2913 27.66 40.3161Z" fill="#E0E0E0"/>
<path d="M34.6359 32.0401C34.5851 32.0866 34.5454 32.144 34.5199 32.2081L33.3439 35.3601L29.9399 33.3961C29.9399 33.3961 29.9399 33.3961 29.9399 33.3721L31.1159 30.2201C31.1395 30.1583 31.178 30.1033 31.2279 30.0601L34.6359 32.0401Z" fill="#E0E0E0"/>
<path d="M40.9556 33.7441C40.8993 33.7319 40.8407 33.7355 40.7864 33.7546C40.732 33.7737 40.684 33.8074 40.6476 33.8521L38.4356 35.8761C38.375 35.9422 38.294 35.986 38.2055 36.0005C38.117 36.015 38.0262 35.9994 37.9476 35.9561C37.6632 35.7235 37.3431 35.5385 36.9996 35.4081C36.9216 35.3778 36.8566 35.3213 36.8157 35.2484C36.7748 35.1754 36.7607 35.0904 36.7756 35.0081L37.4596 31.9081C37.471 31.866 37.4677 31.8212 37.4502 31.7812C37.4328 31.7412 37.4022 31.7084 37.3636 31.6881L36.5156 31.2001C36.5433 31.1944 36.5719 31.1944 36.5996 31.2001L36.6476 31.2281L40.9556 33.7441Z" fill="#E0E0E0"/>
<path d="M41.9277 41.824C41.8857 41.8021 41.8389 41.7911 41.7917 41.792L39.9317 41.688C39.8907 41.689 39.85 41.6818 39.8119 41.6668C39.7738 41.6518 39.7392 41.6292 39.7101 41.6004C39.6809 41.5716 39.6579 41.5373 39.6424 41.4994C39.6268 41.4615 39.6191 41.4209 39.6197 41.38C39.6437 41.088 39.6597 40.796 39.6597 40.512L41.9277 41.824Z" fill="#E0E0E0"/>
<path d="M22.9839 40.8C22.9659 40.8268 22.9444 40.851 22.9199 40.872L22.9839 40.8Z" fill="#E0E0E0"/>
<path d="M20.0919 41.844C20.0502 41.8887 20.0188 41.9419 19.9999 42L19.8919 42.4L19.2239 44.652L18.9959 45.424C18.9818 45.4641 18.9818 45.5079 18.9959 45.548C18.9992 45.5727 19.0088 45.5961 19.0239 45.616C19.0379 45.6375 19.0555 45.6564 19.0759 45.672C19.0864 45.682 19.0986 45.6902 19.1119 45.696L19.4519 45.896L19.5479 45.948L19.8199 46.104L19.9679 46.192L20.1359 46.288L20.1999 46.328L20.3799 46.428L21.3719 47L22.4799 47.64C22.4377 47.6131 22.4058 47.5729 22.3891 47.5258C22.3724 47.4787 22.372 47.4274 22.3879 47.38L23.2879 44.352L23.4159 43.928C23.4312 43.8736 23.4601 43.8241 23.4999 43.784L20.0919 41.844Z" fill="#E0E0E0"/>
<path d="M34.5398 54.6399L32.2598 53.3159C32.4718 53.1919 32.6958 53.0519 32.9118 52.9159C33.1278 52.7799 33.3118 52.7839 33.3758 52.9159L34.4838 54.6119C34.5008 54.6242 34.5197 54.6336 34.5398 54.6399Z" fill="#E0E0E0"/>
<path d="M27.6599 54.4801L26.9759 57.6001C26.9654 57.6406 26.9688 57.6835 26.9854 57.7219C27.0021 57.7603 27.0311 57.7921 27.0679 57.8121C26.9279 57.7361 24.7839 56.4921 23.5479 55.7761C23.6382 55.7671 23.7229 55.7276 23.7879 55.6641L25.9999 53.6241C26.0597 53.5583 26.1398 53.5143 26.2274 53.4991C26.3151 53.4838 26.4053 53.4983 26.4839 53.5401C26.7681 53.7749 27.0882 53.9627 27.4319 54.0961C27.5089 54.1232 27.5739 54.1765 27.6156 54.2467C27.6573 54.3169 27.6729 54.3995 27.6599 54.4801Z" fill="#E0E0E0"/>
<path d="M24.8 49.912C24.8045 49.9966 24.7909 50.0812 24.76 50.16L21.356 48.196C21.3876 48.1159 21.4026 48.0301 21.4 47.944C21.3704 47.6369 21.3571 47.3285 21.36 47.02L22.468 47.66C22.5135 47.6853 22.564 47.7004 22.616 47.704L24.48 47.808C24.5205 47.8069 24.5609 47.814 24.5988 47.8288C24.6366 47.8436 24.671 47.8658 24.7001 47.8942C24.7292 47.9225 24.7523 47.9564 24.7681 47.9938C24.7839 48.0312 24.792 48.0714 24.792 48.112C24.7402 48.711 24.7428 49.3135 24.8 49.912Z" fill="#E0E0E0"/>
<path d="M23.4521 55.7401L22.5601 55.2241L22.3921 55.1241L20.9561 54.2961C20.8201 54.2161 20.6921 54.1401 20.5561 54.0721L20.0641 53.7801C20.0506 53.7728 20.0385 53.7633 20.0281 53.7521C20.016 53.7393 20.0065 53.7244 20.0001 53.7081L19.0121 51.5241C18.9934 51.4655 18.9934 51.4026 19.0121 51.3441C19.0104 51.3188 19.0104 51.2934 19.0121 51.2681L22.4121 53.2321C22.3822 53.3175 22.3822 53.4106 22.4121 53.4961L23.3961 55.6761C23.4096 55.7014 23.4288 55.7233 23.4521 55.7401Z" fill="#E0E0E0"/>
<path d="M164.304 43.744C164.851 44.3703 165.561 44.8316 166.356 45.076H166.444H166.504L166.644 45.1H166.808H166.908C166.924 45.1041 166.94 45.1041 166.956 45.1C167.275 45.1013 167.587 45.0072 167.852 44.8297C168.117 44.6522 168.323 44.3995 168.444 44.1041C168.559 43.8412 168.632 43.5617 168.66 43.2761C168.54 43.2201 168.412 43.152 168.288 43.08C167.364 42.4792 166.595 41.6685 166.044 40.7141C165.493 39.7597 165.175 38.6886 165.116 37.5881C165.116 37.436 165.116 37.2961 165.116 37.1601C164.766 36.9936 164.383 36.9114 163.996 36.9201H163.928H163.872H163.812C163.537 36.9614 163.278 37.0735 163.06 37.2453C162.842 37.4172 162.672 37.6428 162.568 37.9C161.916 39.452 162.684 42.04 164.304 43.744Z" fill="#848DF9"/>
<path d="M158.36 39.1361L159.108 41.6481C159.138 41.7179 159.184 41.7796 159.242 41.8282C159.301 41.8769 159.37 41.9111 159.444 41.9281L160.928 42.2841C161.085 42.3246 161.22 42.4252 161.304 42.5641C161.542 43.0411 161.81 43.5033 162.104 43.9481C162.183 44.0652 162.215 44.2084 162.192 44.3481L161.712 45.9801C161.699 46.0525 161.705 46.1268 161.728 46.1966C161.751 46.2664 161.791 46.3294 161.844 46.3801L163.58 48.2081C163.664 48.3001 163.764 48.3281 163.828 48.2881C163.844 48.2795 163.858 48.2672 163.868 48.2521L164.668 47.0161C164.724 46.9281 164.876 46.9361 165.008 47.0161C165.14 47.0961 165.324 47.2281 165.484 47.3201C165.644 47.4121 165.82 47.5041 165.984 47.5841C166.132 47.6532 166.254 47.7701 166.328 47.9161L167.184 50.2121C167.218 50.2777 167.267 50.3339 167.328 50.3757C167.388 50.4176 167.459 50.4438 167.532 50.4521L169.108 50.6081C169.159 50.6149 169.211 50.6051 169.256 50.5801C169.282 50.5653 169.302 50.5424 169.313 50.5149C169.325 50.4875 169.327 50.457 169.32 50.4281L168.82 48.1681C168.81 48.1091 168.821 48.0487 168.851 47.997C168.881 47.9453 168.928 47.9054 168.984 47.8841C169.234 47.7879 169.468 47.6529 169.676 47.4841C169.733 47.4531 169.798 47.4421 169.862 47.453C169.926 47.4639 169.984 47.496 170.028 47.5441L171.628 49.0161C171.674 49.0646 171.737 49.0945 171.804 49.1001C171.822 49.1042 171.841 49.1042 171.86 49.1001C171.88 49.0887 171.896 49.0702 171.904 49.0481L172.62 47.4481C172.638 47.3828 172.638 47.314 172.622 47.2482C172.606 47.1825 172.574 47.1219 172.528 47.0721L171.02 45.2401C170.925 45.1283 170.873 44.9867 170.872 44.8401C170.912 44.4064 170.912 43.9699 170.872 43.5361C170.872 43.5065 170.878 43.4773 170.889 43.45C170.901 43.4228 170.918 43.3982 170.939 43.3777C170.96 43.3571 170.986 43.3411 171.013 43.3305C171.041 43.3199 171.07 43.315 171.1 43.3161L172.456 43.2401C172.484 43.2418 172.513 43.2366 172.539 43.225C172.565 43.2135 172.588 43.1958 172.606 43.1735C172.624 43.1512 172.637 43.1249 172.643 43.0968C172.648 43.0688 172.647 43.0397 172.64 43.0121L171.892 40.5001C171.862 40.4303 171.816 40.3686 171.757 40.32C171.699 40.2714 171.63 40.2371 171.556 40.2201L170.076 39.8641C169.919 39.8232 169.784 39.7228 169.7 39.5841C169.461 39.1072 169.194 38.645 168.9 38.2001C168.822 38.0824 168.79 37.9398 168.812 37.8001L169.296 36.1641C169.304 36.0946 169.296 36.024 169.273 35.9581C169.249 35.8921 169.21 35.8326 169.16 35.7841L167.428 33.9521C167.324 33.8441 167.196 33.8281 167.136 33.9161L166.336 35.1481C166.28 35.2361 166.132 35.2281 166 35.1481C165.689 34.933 165.361 34.743 165.02 34.5801C164.871 34.5111 164.75 34.3942 164.676 34.2481L163.82 31.9521C163.787 31.8866 163.738 31.8304 163.678 31.7885C163.618 31.7466 163.549 31.7203 163.476 31.7121L161.9 31.5561C161.848 31.5506 161.795 31.5589 161.748 31.5801C161.721 31.5957 161.699 31.6198 161.687 31.6487C161.675 31.6776 161.672 31.7097 161.68 31.7401L162.196 34.0001C162.205 34.0586 162.195 34.1187 162.166 34.1703C162.137 34.222 162.091 34.2621 162.036 34.2841C161.785 34.3794 161.551 34.5145 161.344 34.6841C161.287 34.7152 161.221 34.7261 161.157 34.7153C161.093 34.7044 161.035 34.6723 160.992 34.6241L159.392 33.1521C159.308 33.0761 159.22 33.0481 159.16 33.0801C159.142 33.0922 159.128 33.1088 159.12 33.1281L158.4 34.7281C158.382 34.7935 158.381 34.8622 158.397 34.928C158.413 34.9937 158.446 35.0544 158.492 35.1041L160 36.9081C160.091 37.0218 160.143 37.1622 160.148 37.3081C160.125 37.5314 160.114 37.7557 160.116 37.9801C160.116 38.1841 160.116 38.3801 160.148 38.6121C160.148 38.6417 160.142 38.671 160.13 38.6982C160.119 38.7254 160.102 38.75 160.081 38.7706C160.059 38.7911 160.034 38.8071 160.006 38.8177C159.979 38.8283 159.949 38.8332 159.92 38.8321L158.568 38.9081C158.533 38.9095 158.499 38.9176 158.468 38.9321C158.428 38.9467 158.394 38.9756 158.374 39.0133C158.355 39.051 158.349 39.0948 158.36 39.1361ZM164.3 43.7441C162.7 42.0401 161.9 39.4521 162.588 37.9721C162.69 37.7141 162.858 37.4875 163.076 37.3154C163.294 37.1434 163.553 37.0318 163.828 36.9921H163.888H163.944H164C164.385 36.9843 164.767 37.065 165.116 37.2281C165.248 37.2881 165.384 37.3561 165.516 37.4321C165.961 37.6966 166.365 38.024 166.716 38.4041C167.882 39.6175 168.576 41.2079 168.672 42.8881C168.676 43.0418 168.668 43.1957 168.648 43.3481C168.62 43.6338 168.547 43.9133 168.432 44.1761C168.312 44.4723 168.106 44.7259 167.841 44.9041C167.576 45.0823 167.263 45.1771 166.944 45.1761H166.8H166.636L166.496 45.1521H166.436L166.348 45.1281C165.55 44.866 164.841 44.3868 164.3 43.7441Z" fill="#F5F5F5"/>
<path d="M164.704 34.24C164.776 34.3814 164.895 34.4941 165.04 34.56C165.381 34.7229 165.709 34.9129 166.02 35.128C166.152 35.216 166.3 35.224 166.356 35.128L167.156 33.896C167.165 33.8789 167.179 33.865 167.196 33.856L168.712 32.98C168.544 32.884 168.376 32.792 168.212 32.716C168.19 32.7078 168.17 32.697 168.152 32.684C168.092 32.6467 168.037 32.6024 167.988 32.552L167.928 32.488C167.916 32.473 167.905 32.4569 167.896 32.44L167.872 32.396L164.704 34.24Z" fill="#EBEBEB"/>
<path d="M168.836 37.8361C168.83 37.9562 168.862 38.0751 168.928 38.1761C169.222 38.621 169.489 39.0831 169.728 39.5601C169.747 39.5999 169.774 39.6354 169.808 39.6641L173.008 37.8201C172.99 37.8057 172.975 37.788 172.964 37.7681C172.948 37.7527 172.934 37.7352 172.924 37.7161C172.686 37.237 172.419 36.7734 172.124 36.3281C172.109 36.3067 172.097 36.2839 172.088 36.2601C172.078 36.2442 172.071 36.2266 172.068 36.2081C172.068 36.2081 172.068 36.2081 172.068 36.1801C172.066 36.1574 172.066 36.1347 172.068 36.1121C172.058 36.0781 172.058 36.042 172.068 36.0081L168.836 37.8361Z" fill="#EBEBEB"/>
<path d="M168.732 32.9801L170.388 32.0201C170.411 32.0138 170.436 32.0138 170.46 32.0201C170.495 32.0226 170.53 32.0324 170.562 32.0489C170.593 32.0655 170.621 32.0883 170.644 32.1161L171.68 33.2001L172.376 33.9321C172.434 33.9948 172.476 34.0701 172.5 34.1521L170.064 35.5481L169.308 35.9801C169.284 35.9048 169.243 35.8363 169.188 35.7801L169.168 35.7561L167.456 33.9481C167.428 33.9122 167.391 33.8852 167.348 33.8703C167.306 33.8554 167.26 33.8532 167.216 33.8641L168.732 32.9801Z" fill="#F5F5F5"/>
<path d="M161.78 31.556C161.824 31.5452 161.871 31.5452 161.916 31.556L163.496 31.712C163.593 31.7225 163.685 31.7646 163.756 31.832L166.956 29.992C166.884 29.9219 166.791 29.8781 166.692 29.868L165.112 29.712C165.058 29.7034 165.003 29.7133 164.956 29.74L164.532 29.988L164.324 30.108L162.972 30.908L162.636 31.104L162.4 31.2L161.78 31.556Z" fill="#F5F5F5"/>
<path d="M169.808 39.668C169.889 39.7518 169.991 39.8125 170.104 39.844L171.588 40.2C171.694 40.2283 171.789 40.2883 171.86 40.372L175.06 38.536C174.987 38.4464 174.887 38.3821 174.776 38.352L173.296 37.996C173.184 37.9673 173.083 37.9077 173.004 37.824L169.808 39.668Z" fill="#E6E6E6"/>
<path d="M170.932 44.9999C170.958 45.08 170.999 45.1545 171.052 45.2199L172.56 47.0519C172.605 47.1055 172.637 47.1683 172.656 47.2359L175.856 45.3919C175.838 45.3228 175.806 45.2585 175.76 45.2039L174.248 43.3719C174.197 43.309 174.159 43.2371 174.136 43.1599L170.932 44.9999Z" fill="#E6E6E6"/>
<path d="M175.024 41.7799L174.98 41.8079L175.036 41.7759L175.148 41.7119L175.024 41.7799Z" fill="#E0E0E0"/>
<path d="M164.304 43.744C164.851 44.3703 165.561 44.8316 166.356 45.076H166.444H166.504L166.644 45.1H166.808H166.908C166.924 45.1041 166.94 45.1041 166.956 45.1C167.275 45.1013 167.587 45.0072 167.852 44.8297C168.117 44.6522 168.323 44.3995 168.444 44.1041C168.559 43.8412 168.632 43.5617 168.66 43.2761C168.54 43.2201 168.412 43.152 168.288 43.08C167.364 42.4792 166.595 41.6685 166.044 40.7141C165.493 39.7597 165.175 38.6886 165.116 37.5881C165.116 37.436 165.116 37.2961 165.116 37.1601C164.766 36.9936 164.383 36.9114 163.996 36.9201H163.928H163.872H163.812C163.537 36.9614 163.278 37.0735 163.06 37.2453C162.842 37.4172 162.672 37.6428 162.568 37.9C161.916 39.452 162.684 42.04 164.304 43.744Z" fill="#E0E0E0"/>
<path d="M168.836 37.836L172.036 35.996C172.032 35.9776 172.032 35.9585 172.036 35.94L172.52 34.304C172.536 34.2518 172.536 34.1962 172.52 34.144L170.084 35.54L169.328 35.972C169.345 36.0308 169.345 36.0932 169.328 36.152L168.848 37.784C168.84 37.8001 168.836 37.818 168.836 37.836Z" fill="#E0E0E0"/>
<path d="M163.756 31.8119C163.793 31.8451 163.821 31.8861 163.84 31.9319L164.696 34.2279L167.896 32.3839L167.04 30.0879C167.023 30.0432 166.996 30.0034 166.96 29.9719L163.756 31.8119Z" fill="#E0E0E0"/>
<path d="M159.156 33.0521C159.196 33.0447 159.238 33.0478 159.278 33.0611C159.317 33.0744 159.352 33.0975 159.38 33.1281L160.98 34.6041C161.023 34.6529 161.081 34.6854 161.145 34.6963C161.209 34.7073 161.275 34.6959 161.332 34.6641C161.539 34.4945 161.773 34.3594 162.024 34.2641C162.079 34.2427 162.126 34.2027 162.155 34.1509C162.184 34.099 162.194 34.0386 162.184 33.9801L161.688 31.7201C161.68 31.6897 161.683 31.6576 161.695 31.6287C161.707 31.5998 161.729 31.5757 161.756 31.5601L162.4 31.2001C162.38 31.196 162.36 31.196 162.34 31.2001C162.328 31.198 162.316 31.198 162.304 31.2001L159.156 33.0521Z" fill="#E0E0E0"/>
<path d="M158.448 38.932C158.479 38.917 158.513 38.9088 158.548 38.908L159.904 38.832C159.933 38.8331 159.962 38.8282 159.99 38.8175C160.017 38.8069 160.042 38.7908 160.063 38.7702C160.084 38.7496 160.101 38.725 160.112 38.6978C160.123 38.6706 160.128 38.6414 160.128 38.612C160.128 38.396 160.1 38.184 160.1 37.98L158.448 38.932Z" fill="#E0E0E0"/>
<path d="M172.952 37.772C172.963 37.7919 172.978 37.8096 172.996 37.824L172.952 37.772Z" fill="#E0E0E0"/>
<path d="M175.056 38.5359C175.08 38.5652 175.098 38.5992 175.108 38.6359L175.2 38.9439L175.688 40.5839L175.856 41.1479C175.864 41.178 175.864 41.2097 175.856 41.2399C175.852 41.2571 175.846 41.2735 175.836 41.2879C175.826 41.303 175.814 41.3165 175.8 41.3279H175.772L175.524 41.4759L175.452 41.5119L175.256 41.6279L175.148 41.6919L175.024 41.7599L174.98 41.7879L174.848 41.8599L174.128 42.2599L172.608 43.1399C172.639 43.1202 172.663 43.0906 172.675 43.0557C172.687 43.0209 172.688 42.9829 172.676 42.9479L172 40.7999L171.908 40.4919C171.896 40.452 171.875 40.4152 171.848 40.3839L175.056 38.5359Z" fill="#E0E0E0"/>
<path d="M163.824 48.2639L165.484 47.2999C165.332 47.2079 165.168 47.1079 165.012 46.9999C164.856 46.8919 164.732 46.9039 164.676 46.9999L163.876 48.2359C163.861 48.2497 163.843 48.2594 163.824 48.2639Z" fill="#E0E0E0"/>
<path d="M168.836 48.1441L169.332 50.4081C169.339 50.4374 169.336 50.4682 169.324 50.4958C169.311 50.5233 169.29 50.5459 169.264 50.5601C169.364 50.5041 170.928 49.6041 171.828 49.0801C171.761 49.0745 171.698 49.0446 171.652 48.9961L170.052 47.5241C170.009 47.4747 169.951 47.4417 169.887 47.4307C169.822 47.4198 169.756 47.4316 169.7 47.4641C169.491 47.6329 169.258 47.7679 169.008 47.8641C168.95 47.8825 168.901 47.9209 168.87 47.9722C168.838 48.0236 168.826 48.0846 168.836 48.1441Z" fill="#E0E0E0"/>
<path d="M170.904 44.82C170.9 44.8813 170.91 44.9426 170.932 45L174.132 43.16C174.109 43.1014 174.098 43.0388 174.1 42.976C174.121 42.7526 174.13 42.5283 174.128 42.304L172.608 43.184C172.574 43.2016 172.537 43.2112 172.5 43.212L171.144 43.292C171.114 43.2909 171.085 43.2958 171.057 43.3063C171.029 43.3169 171.004 43.333 170.983 43.3535C170.962 43.374 170.945 43.3986 170.933 43.4259C170.921 43.4531 170.916 43.4824 170.916 43.512C170.95 43.9475 170.946 44.3851 170.904 44.82Z" fill="#E0E0E0"/>
<path d="M171.896 49.0601L172.544 48.6881L172.668 48.6161L173.716 48.0121L173.996 47.8481L175.072 47.2241C175.08 47.2265 175.088 47.2265 175.096 47.2241L175.12 47.1921L175.836 45.5921C175.849 45.549 175.849 45.5031 175.836 45.4601V45.4041L172.636 47.2481C172.658 47.3101 172.658 47.378 172.636 47.4401L171.92 49.0401C171.913 49.048 171.905 49.0547 171.896 49.0601Z" fill="#E0E0E0"/>
<path d="M170.524 60.16L171.552 63.612C171.591 63.7104 171.654 63.7979 171.734 63.8675C171.814 63.9371 171.909 63.9866 172.012 64.012L174.048 64.504C174.267 64.5638 174.454 64.7075 174.568 64.904C174.892 65.5592 175.257 66.1937 175.66 66.804C175.766 66.9626 175.81 67.1548 175.784 67.344L175.12 69.588C175.109 69.683 175.119 69.7792 175.151 69.8694C175.183 69.9596 175.235 70.0412 175.304 70.108L177.684 72.624C177.8 72.748 177.94 72.788 178.032 72.732C178.053 72.7189 178.071 72.7011 178.084 72.68L179.196 70.984C179.272 70.864 179.48 70.872 179.66 70.984C179.84 71.096 180.096 71.272 180.312 71.384C180.528 71.496 180.772 71.64 181 71.744C181.204 71.8426 181.37 72.0038 181.476 72.204L182.652 75.356C182.696 75.4473 182.763 75.5257 182.847 75.5838C182.93 75.6419 183.027 75.6778 183.128 75.688L185.296 75.904C185.366 75.9122 185.437 75.8997 185.5 75.868C185.537 75.8479 185.566 75.8162 185.582 75.7778C185.599 75.7394 185.602 75.6965 185.592 75.656L184.908 72.552C184.89 72.4695 184.903 72.3834 184.945 72.3099C184.986 72.2363 185.052 72.1802 185.132 72.152C185.475 72.0184 185.794 71.8321 186.08 71.6C186.158 71.5577 186.248 71.5426 186.336 71.5571C186.423 71.5715 186.504 71.6148 186.564 71.68L188.78 73.708C188.844 73.7729 188.929 73.8139 189.02 73.824C189.046 73.8236 189.073 73.8167 189.096 73.804C189.124 73.7897 189.145 73.7654 189.156 73.736L190.144 71.556C190.166 71.466 190.166 71.3721 190.143 71.2822C190.121 71.1923 190.077 71.1092 190.016 71.04L187.94 68.524C187.812 68.3683 187.741 68.1734 187.74 67.972C187.794 67.3759 187.794 66.7761 187.74 66.18C187.74 66.1394 187.748 66.0992 187.764 66.0618C187.78 66.0243 187.803 65.9905 187.832 65.9621C187.861 65.9338 187.895 65.9116 187.933 65.8968C187.971 65.882 188.011 65.8749 188.052 65.876L189.912 65.772C189.951 65.7755 189.991 65.7694 190.028 65.754C190.065 65.7386 190.097 65.7145 190.122 65.6837C190.148 65.653 190.165 65.6165 190.173 65.5775C190.181 65.5385 190.179 65.4981 190.168 65.46L189.152 62C189.11 61.9051 189.047 61.8214 188.967 61.7554C188.887 61.6894 188.793 61.643 188.692 61.62L186.656 61.128C186.437 61.0678 186.25 60.9242 186.136 60.728C185.811 60.0731 185.446 59.4386 185.044 58.828C184.936 58.6702 184.891 58.4772 184.92 58.288L185.584 56.044C185.595 55.949 185.585 55.8526 185.553 55.7624C185.521 55.6722 185.469 55.5906 185.4 55.524L183.02 53.008C182.876 52.86 182.696 52.832 182.62 52.952L181.508 54.648C181.432 54.768 181.228 54.76 181.044 54.648C180.616 54.3542 180.167 54.0934 179.7 53.868C179.496 53.7729 179.33 53.6124 179.228 53.412L178.052 50.26C178.008 50.1692 177.941 50.0911 177.859 50.033C177.776 49.975 177.68 49.9388 177.58 49.928L175.408 49.712C175.338 49.7058 175.268 49.7183 175.204 49.748C175.166 49.7693 175.136 49.8023 175.119 49.842C175.102 49.8816 175.098 49.9259 175.108 49.968L175.792 53.072C175.809 53.1539 175.796 53.2392 175.755 53.3125C175.715 53.3858 175.65 53.4423 175.572 53.472C175.228 53.6029 174.908 53.7893 174.624 54.024C174.545 54.0668 174.454 54.0818 174.365 54.0666C174.277 54.0513 174.196 54.0067 174.136 53.94L171.92 51.916C171.883 51.8699 171.833 51.8361 171.777 51.819C171.72 51.8019 171.66 51.8022 171.604 51.82C171.579 51.8377 171.558 51.861 171.544 51.888L170.56 54.072C170.536 54.1615 170.535 54.2555 170.557 54.3456C170.578 54.4356 170.622 54.5189 170.684 54.588L172.76 57.1C172.89 57.2546 172.962 57.4498 172.964 57.652C172.936 57.952 172.924 58.26 172.924 58.576C172.924 58.892 172.944 59.148 172.968 59.444C172.968 59.4846 172.961 59.5248 172.945 59.5623C172.929 59.5998 172.906 59.6336 172.877 59.6618C172.848 59.6899 172.813 59.7117 172.775 59.7259C172.737 59.74 172.696 59.7462 172.656 59.744L170.796 59.852C170.749 59.8511 170.702 59.8621 170.66 59.884C170.607 59.9054 170.565 59.9453 170.54 59.9962C170.514 60.047 170.509 60.1053 170.524 60.16ZM178.684 66.492C176.464 64.148 175.408 60.596 176.328 58.56C176.469 58.2059 176.701 57.8951 177 57.6586C177.299 57.422 177.655 57.268 178.032 57.212H178.116H178.196H178.292C178.822 57.2001 179.348 57.311 179.828 57.536C180.016 57.6189 180.199 57.7124 180.376 57.816C180.983 58.1799 181.535 58.6284 182.016 59.148C183.684 60.908 184.696 63.344 184.708 65.312C184.71 65.5232 184.698 65.7344 184.672 65.944C184.633 66.3358 184.533 66.7191 184.376 67.08C184.214 67.4886 183.932 67.8386 183.567 68.0835C183.202 68.3285 182.771 68.457 182.332 68.452H182.128L181.904 68.432L181.712 68.4L181.624 68.38L181.504 68.348C180.411 68.0007 179.435 67.3585 178.684 66.492Z" fill="#F5F5F5"/>
<path d="M179.236 53.4321C179.339 53.6249 179.502 53.7792 179.7 53.8721C180.168 54.0958 180.617 54.3566 181.044 54.6521C181.224 54.7761 181.444 54.7841 181.508 54.6521L182.616 52.9561C182.63 52.9348 182.65 52.917 182.672 52.9041H182.692L183.792 52.2641C183.56 52.1281 183.328 52.0081 183.104 51.9041L183.02 51.8561C182.938 51.8053 182.863 51.7449 182.796 51.6761C182.767 51.6487 182.74 51.6193 182.716 51.5881C182.698 51.5691 182.683 51.5475 182.672 51.5241L182.64 51.4641L179.236 53.4321Z" fill="#EBEBEB"/>
<path d="M184.912 58.372C184.908 58.5389 184.954 58.7031 185.044 58.844C185.445 59.4545 185.811 60.0875 186.14 60.74C186.167 60.7938 186.204 60.8426 186.248 60.884L189.652 58.92C189.627 58.899 189.606 58.8747 189.588 58.848C189.568 58.826 189.55 58.8018 189.536 58.776C189.212 58.1193 188.847 57.4834 188.444 56.872C188.421 56.8418 188.403 56.808 188.392 56.772C188.377 56.7521 188.367 56.7287 188.364 56.704C188.362 56.6907 188.362 56.6772 188.364 56.664C188.364 56.664 188.364 56.6 188.344 56.572C188.334 56.5245 188.334 56.4755 188.344 56.428L184.912 58.372Z" fill="#EBEBEB"/>
<path d="M183.792 52.2679L186.068 50.9479C186.097 50.9303 186.13 50.9206 186.164 50.9199C186.213 50.9244 186.261 50.9387 186.304 50.9621C186.347 50.9855 186.385 51.0174 186.416 51.0559L187.84 52.5599L188.796 53.5679C188.874 53.6525 188.931 53.7538 188.964 53.8639L186.596 55.2199L185.56 55.8159C185.526 55.7131 185.47 55.6189 185.396 55.5399L185.364 55.5079L183.016 53.0239C182.979 52.9738 182.928 52.9359 182.87 52.9152C182.811 52.8945 182.748 52.8919 182.688 52.9079L183.792 52.2679Z" fill="#F5F5F5"/>
<path d="M175.22 49.7441C175.279 49.7198 175.344 49.7102 175.408 49.7161L177.576 49.9361C177.711 49.9494 177.837 50.0071 177.936 50.1001L181.34 48.1361C181.241 48.0414 181.115 47.9811 180.98 47.9641L178.808 47.7481C178.735 47.7384 178.66 47.7524 178.596 47.7881L178.008 48.1281L177.724 48.2961L176.844 48.8081L176.388 49.0721C176.272 49.1361 176.16 49.2041 176.052 49.2601L175.22 49.7441Z" fill="#F5F5F5"/>
<path d="M186.248 60.8881C186.357 61.0027 186.495 61.0868 186.648 61.1321L188.684 61.6201C188.83 61.66 188.962 61.7437 189.06 61.8601L192.472 59.9001C192.369 59.7763 192.228 59.6893 192.072 59.6521L190.036 59.1601C189.883 59.1188 189.745 59.0373 189.636 58.9241L186.248 60.8881Z" fill="#E6E6E6"/>
<path d="M187.792 68.2159C187.83 68.3256 187.885 68.4283 187.956 68.52L190.032 71.0359C190.093 71.1099 190.138 71.1957 190.164 71.288L193.564 69.324C193.54 69.2283 193.495 69.1394 193.432 69.064L191.356 66.5479C191.285 66.46 191.231 66.3597 191.196 66.252L187.792 68.2159Z" fill="#E6E6E6"/>
<path d="M192.436 64.3559L192.376 64.3959L192.456 64.3519L192.608 64.2639L192.436 64.3559Z" fill="#E0E0E0"/>
<path d="M178.684 66.492C179.439 67.3511 180.416 67.9851 181.508 68.324L181.624 68.352L181.708 68.372L181.904 68.404L182.128 68.424H182.268C182.289 68.428 182.311 68.428 182.332 68.424C182.771 68.429 183.202 68.3005 183.567 68.0555C183.932 67.8106 184.214 67.4607 184.376 67.052C184.534 66.6912 184.635 66.3079 184.676 65.916C184.508 65.836 184.336 65.748 184.16 65.648C181.76 64.256 179.804 60.884 179.804 58.104C179.804 57.892 179.804 57.704 179.828 57.512C179.347 57.2841 178.82 57.1718 178.288 57.184H178.196H178.116H178.032C177.655 57.2401 177.299 57.3941 177 57.6306C176.701 57.8671 176.469 58.1779 176.328 58.532C175.408 60.596 176.464 64.148 178.684 66.492Z" fill="#E0E0E0"/>
<path d="M184.912 58.372L188.312 56.412C188.305 56.3857 188.305 56.3583 188.312 56.332L188.976 54.088C188.999 54.0152 188.999 53.9369 188.976 53.864L186.608 55.22L185.572 55.816C185.597 55.8954 185.597 55.9807 185.572 56.06L184.912 58.304C184.907 58.3265 184.907 58.3496 184.912 58.372Z" fill="#E0E0E0"/>
<path d="M177.936 50.1C177.986 50.1454 178.026 50.2014 178.052 50.264L179.228 53.42L182.632 51.456L181.456 48.3C181.431 48.2397 181.393 48.1862 181.344 48.144L177.936 50.1Z" fill="#E0E0E0"/>
<path d="M171.6 51.804C171.655 51.7912 171.713 51.7941 171.766 51.8125C171.82 51.8309 171.868 51.864 171.904 51.908L174.12 53.932C174.18 53.9981 174.261 54.0419 174.35 54.0564C174.438 54.0709 174.529 54.0553 174.608 54.012C174.892 53.7817 175.211 53.5968 175.552 53.464C175.631 53.4357 175.698 53.3796 175.739 53.3061C175.78 53.2325 175.793 53.1465 175.776 53.064L175.096 49.96C175.084 49.9183 175.087 49.8739 175.103 49.834C175.12 49.794 175.15 49.7609 175.188 49.74L176.02 49.256C175.993 49.25 175.966 49.25 175.94 49.256L175.892 49.288L171.6 51.804Z" fill="#E0E0E0"/>
<path d="M170.644 59.8801C170.686 59.8601 170.733 59.8493 170.78 59.8481L172.64 59.7441C172.721 59.7441 172.799 59.7124 172.857 59.6556C172.916 59.5988 172.949 59.5215 172.952 59.4401C172.928 59.1441 172.908 58.8521 172.908 58.5681L170.644 59.8801Z" fill="#E0E0E0"/>
<path d="M189.6 58.8521C189.618 58.8788 189.639 58.903 189.664 58.924L189.6 58.8521Z" fill="#E0E0E0"/>
<path d="M192.48 59.8999C192.513 59.9398 192.537 59.9861 192.552 60.0359L192.68 60.4639L193.348 62.7159L193.576 63.4879C193.59 63.5294 193.59 63.5744 193.576 63.6159C193.571 63.6388 193.561 63.6606 193.548 63.6799C193.536 63.703 193.518 63.7224 193.496 63.7359L193.46 63.7599L193.116 63.9599L193.024 64.0159L192.748 64.1759L192.604 64.2639L192.432 64.3559L192.372 64.3959L192.192 64.4959L191.2 65.0679L190.092 65.7119C190.135 65.6856 190.167 65.6457 190.185 65.5985C190.202 65.5514 190.203 65.4997 190.188 65.4519L189.288 62.4199L189.16 61.9959C189.143 61.9419 189.115 61.8926 189.076 61.8519L192.48 59.8999Z" fill="#E0E0E0"/>
<path d="M178.028 72.7L180.312 71.376C180.096 71.248 179.876 71.108 179.66 70.976C179.444 70.844 179.26 70.844 179.196 70.976L178.084 72.6719C178.067 72.6848 178.048 72.6943 178.028 72.7Z" fill="#E0E0E0"/>
<path d="M184.912 72.5399L185.596 75.6479C185.605 75.6879 185.601 75.7299 185.585 75.7674C185.568 75.805 185.54 75.8361 185.504 75.8559C185.64 75.7799 187.788 74.5399 189.024 73.8199C188.932 73.8118 188.846 73.7723 188.78 73.7079L186.568 71.6839C186.508 71.6181 186.428 71.5741 186.34 71.5589C186.253 71.5437 186.162 71.5581 186.084 71.5999C185.798 71.833 185.476 72.0193 185.132 72.1519C185.056 72.1806 184.992 72.2351 184.952 72.306C184.911 72.377 184.897 72.4597 184.912 72.5399Z" fill="#E0E0E0"/>
<path d="M187.756 67.9679C187.749 68.0522 187.761 68.137 187.792 68.2159L191.196 66.2519C191.164 66.1718 191.151 66.0858 191.156 65.9999C191.184 65.6928 191.196 65.3843 191.192 65.0759L190.084 65.7199C190.039 65.7471 189.988 65.7622 189.936 65.7639L188.072 65.8679C188.031 65.8663 187.99 65.873 187.952 65.8876C187.914 65.9022 187.879 65.9244 187.85 65.9528C187.821 65.9813 187.798 66.0154 187.782 66.053C187.767 66.0907 187.759 66.1312 187.76 66.1719C187.813 66.7695 187.811 67.3706 187.756 67.9679Z" fill="#E0E0E0"/>
<path d="M189.116 73.796C189.188 73.756 189.54 73.556 190.012 73.28L190.18 73.184L191.616 72.352L192.016 72.128L192.512 71.84C192.526 71.834 192.538 71.8243 192.548 71.812C192.558 71.7996 192.568 71.7862 192.576 71.772L193.56 69.6C193.579 69.5401 193.579 69.4759 193.56 69.416V69.344L190.16 71.308C190.19 71.3935 190.19 71.4865 190.16 71.572L189.172 73.748C189.159 73.7695 189.139 73.7863 189.116 73.796Z" fill="#E0E0E0"/>
<path d="M122.696 35.8519V128.88C122.725 129.4 122.875 129.906 123.135 130.358C123.395 130.809 123.757 131.194 124.192 131.48L165.444 155.292C166.268 155.772 166.94 155.38 166.94 154.424V61.3999C166.912 60.8797 166.761 60.3736 166.501 59.922C166.242 59.4705 165.88 59.0862 165.444 58.7999L124.192 34.9879C123.368 34.5079 122.696 34.8959 122.696 35.8519ZM124.852 46.9559C124.852 46.1559 125.428 45.8039 126.14 46.2159L163.644 67.8639C164.019 68.109 164.331 68.4387 164.554 68.8264C164.778 69.2141 164.908 69.649 164.932 70.0959V142.964C164.932 143.788 164.352 144.116 163.644 143.708L126.14 122.056C125.428 121.656 124.852 121.124 124.852 120.308V46.9559Z" fill="#848DF9"/>
<path opacity="0.5" d="M122.696 35.8519V128.88C122.725 129.4 122.875 129.906 123.135 130.358C123.395 130.809 123.757 131.194 124.192 131.48L165.444 155.292C166.268 155.772 166.94 155.38 166.94 154.424V61.3999C166.912 60.8797 166.761 60.3736 166.501 59.922C166.242 59.4705 165.88 59.0862 165.444 58.7999L124.192 34.9879C123.368 34.5079 122.696 34.8959 122.696 35.8519ZM124.852 46.9559C124.852 46.1559 125.428 45.8039 126.14 46.2159L163.644 67.8639C164.019 68.109 164.331 68.4387 164.554 68.8264C164.778 69.2141 164.908 69.649 164.932 70.0959V142.964C164.932 143.788 164.352 144.116 163.644 143.708L126.14 122.056C125.428 121.656 124.852 121.124 124.852 120.308V46.9559Z" fill="black"/>
<path d="M165.628 155.384C166.074 155.572 166.555 155.661 167.039 155.645C167.522 155.629 167.996 155.509 168.428 155.292L170.144 154.3C170.583 154.016 170.948 153.633 171.209 153.181C171.47 152.729 171.621 152.221 171.648 151.7V58.6799C171.64 58.2927 171.552 57.9113 171.388 57.5599C171.336 57.4369 171.277 57.3167 171.212 57.2L166.492 59.924C166.592 60.1016 166.679 60.2861 166.752 60.476C166.865 60.7728 166.925 61.0866 166.932 61.4039V154.428C166.94 155.308 166.368 155.708 165.628 155.384Z" fill="#848DF9"/>
<path opacity="0.7" d="M165.628 155.384C166.074 155.572 166.555 155.661 167.039 155.645C167.522 155.629 167.996 155.509 168.428 155.292L170.144 154.3C170.583 154.016 170.948 153.633 171.209 153.181C171.47 152.729 171.621 152.221 171.648 151.7V58.6799C171.64 58.2927 171.552 57.9113 171.388 57.5599C171.336 57.4369 171.277 57.3167 171.212 57.2L166.492 59.924C166.592 60.1016 166.679 60.2861 166.752 60.476C166.865 60.7728 166.925 61.0866 166.932 61.4039V154.428C166.94 155.308 166.368 155.708 165.628 155.384Z" fill="black"/>
<path d="M144.46 135.2C143.152 134.448 142.092 135.06 142.092 136.568C142.137 137.39 142.374 138.19 142.785 138.903C143.197 139.616 143.771 140.222 144.46 140.672C145.768 141.424 146.828 140.812 146.828 139.304C146.784 138.482 146.546 137.682 146.135 136.969C145.724 136.256 145.15 135.65 144.46 135.2Z" stroke="#E6E6E6" stroke-miterlimit="10"/>
<path d="M144.8 48.8999C144.248 48.5799 143.796 48.8399 143.796 49.4799C143.816 49.8287 143.917 50.1682 144.092 50.471C144.266 50.7738 144.509 51.0316 144.8 51.2239C145.356 51.5439 145.808 51.2839 145.808 50.6399C145.789 50.291 145.688 49.9516 145.513 49.6492C145.338 49.3469 145.093 49.0901 144.8 48.8999Z" fill="black"/>
<path d="M148.7 55.016L140.936 50.532C140.472 50.268 140.096 50.456 140.096 50.956C140.117 51.2383 140.203 51.5119 140.349 51.7545C140.495 51.997 140.696 52.2017 140.936 52.352L148.7 56.832C149.164 57.1 149.54 56.912 149.54 56.408C149.519 56.1263 149.432 55.8536 149.286 55.6118C149.14 55.3699 148.94 55.1658 148.7 55.016Z" fill="black"/>
<path d="M124.852 120.308C124.852 121.108 125.428 121.648 126.14 122.056L163.644 143.708C164.352 144.108 164.932 143.788 164.932 142.964V70.0959C164.907 69.649 164.778 69.2141 164.554 68.8264C164.33 68.4387 164.019 68.109 163.644 67.8639L126.14 46.2159C125.428 45.8159 124.852 46.1359 124.852 46.9559V120.308Z" fill="#848DF9"/>
<path opacity="0.5" d="M124.852 120.308C124.852 121.108 125.428 121.648 126.14 122.056L163.644 143.708C164.352 144.108 164.932 143.788 164.932 142.964V70.0959C164.907 69.649 164.778 69.2141 164.554 68.8264C164.33 68.4387 164.019 68.109 163.644 67.8639L126.14 46.2159C125.428 45.8159 124.852 46.1359 124.852 46.9559V120.308Z" fill="white"/>
<path d="M127.36 52.468V51.784C127.36 51.636 127.42 51.548 127.492 51.588L127.528 51.612C127.574 51.6555 127.609 51.7085 127.632 51.7673C127.655 51.826 127.665 51.8891 127.66 51.952V52.636C127.66 52.784 127.6 52.872 127.528 52.828H127.492C127.444 52.782 127.407 52.7257 127.385 52.6633C127.362 52.6009 127.353 52.5341 127.36 52.468Z" fill="#455A64"/>
<path d="M127.956 52.8001V51.6001C127.956 51.4521 128.012 51.3641 128.084 51.4081H128.12C128.166 51.4525 128.201 51.5062 128.224 51.5656C128.247 51.625 128.256 51.6886 128.252 51.7521V52.9321C128.252 53.0801 128.192 53.1641 128.12 53.1241L128.084 53.1041C128.004 53.0229 127.958 52.9141 127.956 52.8001Z" fill="#455A64"/>
<path d="M128.548 53.152V51.472C128.548 51.324 128.608 51.24 128.68 51.28L128.716 51.3C128.762 51.3445 128.797 51.3983 128.82 51.4576C128.842 51.517 128.852 51.5805 128.848 51.644V53.324C128.848 53.472 128.788 53.556 128.716 53.516H128.68C128.632 53.4692 128.595 53.4122 128.572 53.3491C128.55 53.2861 128.541 53.2187 128.548 53.152Z" fill="#455A64"/>
<path d="M129.144 53.4919V50.5959C129.144 50.4479 129.2 50.3599 129.272 50.4039H129.308C129.354 50.4485 129.389 50.5022 129.412 50.5616C129.435 50.6209 129.444 50.6845 129.44 50.7479V53.6439C129.44 53.7919 129.38 53.8799 129.308 53.8359H129.272C129.227 53.7913 129.193 53.7375 129.17 53.6781C129.148 53.6186 129.139 53.5551 129.144 53.4919Z" fill="#455A64"/>
<path d="M130.752 54.6199C130.738 54.5856 130.732 54.5489 130.732 54.5119V54.0879L130.068 53.6879C130.051 53.6788 130.037 53.6663 130.025 53.6512C130.013 53.636 130.005 53.6185 130 53.5999V53.4479C129.997 53.4226 129.997 53.3971 130 53.3719C130.006 53.3528 130.013 53.3341 130.02 53.3159L130.728 52.1999C130.728 52.1999 130.752 52.1679 130.764 52.1639C130.776 52.1599 130.788 52.1639 130.808 52.1639L130.9 52.2199C130.929 52.234 130.952 52.2582 130.964 52.2879C130.971 52.3249 130.971 52.3629 130.964 52.3999V53.8879L131.112 53.9719C131.138 53.9869 131.159 54.0091 131.172 54.0359C131.179 54.0742 131.179 54.1135 131.172 54.1519V54.2519C131.181 54.2806 131.181 54.3112 131.172 54.3399C131.172 54.3399 131.14 54.3399 131.112 54.3399L130.964 54.2559V54.6799C130.973 54.7086 130.973 54.7392 130.964 54.7679C130.964 54.7679 130.932 54.7679 130.9 54.7679L130.788 54.7039C130.768 54.6805 130.755 54.6511 130.752 54.6199ZM130.776 53.7519V52.6919L130.292 53.4919L130.776 53.7519Z" fill="#455A64"/>
<path d="M131.54 54.8199C131.403 54.4712 131.336 54.0986 131.344 53.7239C131.314 53.421 131.383 53.1167 131.54 52.8559C131.673 52.7039 131.857 52.6959 132.092 52.8319C132.289 52.9436 132.452 53.1068 132.564 53.3039C132.57 53.3235 132.57 53.3444 132.564 53.3639C132.566 53.3772 132.566 53.3906 132.564 53.4039L132.504 53.5559C132.504 53.5559 132.504 53.5799 132.48 53.5759C132.468 53.5662 132.459 53.5539 132.452 53.5399C132.367 53.4023 132.251 53.287 132.112 53.2039C131.952 53.1119 131.824 53.1159 131.736 53.2239C131.624 53.4217 131.576 53.6497 131.6 53.8759C131.592 54.1486 131.637 54.4203 131.732 54.6759C131.799 54.8612 131.926 55.0189 132.092 55.1239C132.143 55.1555 132.198 55.1797 132.256 55.1959C132.299 55.2073 132.345 55.2073 132.388 55.1959V54.5199L132.112 54.3599C132.085 54.3445 132.064 54.3206 132.052 54.2919C132.045 54.255 132.045 54.2169 132.052 54.1799V54.0839C132.052 54.0359 132.052 54.0079 132.052 53.9959C132.052 53.9839 132.084 53.9959 132.112 53.9959L132.552 54.2519C132.584 54.2694 132.608 54.2978 132.62 54.3319C132.634 54.3745 132.641 54.4191 132.64 54.4639V55.4479C132.643 55.4745 132.643 55.5014 132.64 55.5279C132.637 55.5425 132.628 55.5553 132.616 55.5639C132.528 55.5949 132.433 55.603 132.341 55.5876C132.249 55.5723 132.162 55.5338 132.088 55.4759C131.839 55.3225 131.647 55.0923 131.54 54.8199Z" fill="#455A64"/>
<path d="M161.896 69.6C161.854 69.4414 161.762 69.3008 161.632 69.2L159.632 68.048C159.46 67.948 159.328 68.144 159.328 68.496V70C159.33 70.2076 159.368 70.4133 159.44 70.608C159.469 70.686 159.505 70.761 159.548 70.832C159.587 70.8986 159.641 70.9559 159.704 71L161.704 72.152C161.876 72.248 162.012 72.052 162.012 71.7V70.208C162.008 70.0002 161.969 69.7946 161.896 69.6ZM159.52 70.5C159.49 70.4154 159.475 70.326 159.476 70.236V68.744C159.476 68.484 159.584 68.324 159.708 68.4L161.708 69.552C161.743 69.5726 161.772 69.6014 161.792 69.636C161.805 69.6589 161.816 69.683 161.824 69.708C161.855 69.794 161.869 69.8848 161.868 69.976V71.464C161.868 71.724 161.76 71.884 161.636 71.808L159.636 70.656C159.577 70.6172 159.536 70.557 159.52 70.488V70.5Z" fill="#455A64"/>
<path d="M160.776 69.272V71.036L159.704 70.4L159.668 70.372C159.671 70.3521 159.671 70.332 159.668 70.312V68.972C159.668 68.784 159.752 68.664 159.844 68.716L160.776 69.272Z" fill="#455A64"/>
<path d="M162.108 70.264C162.184 70.304 162.244 70.588 162.244 70.892V71.168C162.244 71.476 162.184 71.696 162.108 71.66L161.972 71.596V70.188L162.108 70.264Z" fill="#455A64"/>
<path d="M157.16 68.964C157.16 69.292 156.988 69.46 156.76 69.336C156.635 69.2393 156.534 69.115 156.464 68.9728C156.395 68.8306 156.359 68.6742 156.36 68.516C156.36 68.188 156.532 68.024 156.76 68.144C156.886 68.2402 156.988 68.3644 157.057 68.5068C157.127 68.6491 157.162 68.8056 157.16 68.964Z" fill="#455A64"/>
<path d="M156.772 67.1721C156.697 67.1178 156.609 67.0826 156.517 67.0692C156.425 67.0559 156.331 67.0649 156.243 67.0955C156.155 67.1261 156.076 67.1774 156.012 67.245C155.949 67.3126 155.902 67.3946 155.876 67.4841C155.861 67.5367 155.857 67.5919 155.864 67.6462C155.87 67.7006 155.888 67.753 155.916 67.8001C155.988 67.9281 156.096 67.9601 156.14 67.8561C156.156 67.7917 156.188 67.7323 156.233 67.6833C156.278 67.6342 156.334 67.5972 156.397 67.5753C156.46 67.5535 156.527 67.5476 156.592 67.5582C156.658 67.5688 156.72 67.5956 156.772 67.6361C157.093 67.8648 157.318 68.2038 157.404 68.5881C157.448 68.7401 157.556 68.8361 157.632 68.7881C157.664 68.7512 157.685 68.7061 157.692 68.6579C157.699 68.6097 157.692 68.5605 157.672 68.5161C157.543 67.9746 157.224 67.4976 156.772 67.1721Z" fill="#455A64"/>
<path d="M156.772 66.2199C156.661 66.1389 156.534 66.0838 156.399 66.0587C156.264 66.0336 156.125 66.0391 155.993 66.0748C155.86 66.1105 155.738 66.1755 155.634 66.265C155.53 66.3545 155.447 66.4662 155.392 66.5919C155.373 66.6463 155.366 66.7041 155.372 66.7614C155.377 66.8187 155.395 66.8742 155.424 66.9239C155.492 67.0519 155.596 67.0839 155.644 66.9919C155.689 66.8892 155.756 66.7978 155.84 66.7246C155.925 66.6513 156.025 66.5981 156.133 66.5689C156.241 66.5397 156.354 66.5352 156.464 66.5558C156.574 66.5764 156.678 66.6216 156.768 66.6879C157.317 67.0754 157.716 67.6406 157.896 68.2879C157.944 68.4319 158.048 68.5239 158.116 68.4759C158.18 68.4359 158.192 68.3079 158.148 68.1799C157.927 67.3887 157.441 66.6971 156.772 66.2199Z" fill="#455A64"/>
<path d="M122.708 35.6C122.816 34.8 123.441 34.536 124.193 34.972L165.444 58.8C165.888 59.0763 166.253 59.462 166.505 59.92L171.224 57.196C170.97 56.7397 170.604 56.3556 170.16 56.08L128.917 32.264C128.451 32.0272 127.937 31.9038 127.415 31.9038C126.892 31.9038 126.378 32.0272 125.913 32.264L124.193 33.252C123.792 33.5149 123.452 33.8605 123.197 34.2654C122.941 34.6704 122.774 35.1254 122.708 35.6Z" fill="#848DF9"/>
<path opacity="0.2" d="M122.708 35.6C122.816 34.8 123.441 34.536 124.193 34.972L165.444 58.8C165.888 59.0763 166.253 59.462 166.505 59.92L171.224 57.196C170.97 56.7397 170.604 56.3556 170.16 56.08L128.917 32.264C128.451 32.0272 127.937 31.9038 127.415 31.9038C126.892 31.9038 126.378 32.0272 125.913 32.264L124.193 33.252C123.792 33.5149 123.452 33.8605 123.197 34.2654C122.941 34.6704 122.774 35.1254 122.708 35.6Z" fill="black"/>
<path d="M75.8081 34.9879L34.5561 58.7999C34.1208 59.0862 33.7587 59.4705 33.4989 59.922C33.2391 60.3736 33.0888 60.8797 33.0601 61.3999V154.424C33.0601 155.38 33.7321 155.772 34.5561 155.292L75.8081 131.48C76.2433 131.194 76.6054 130.809 76.8652 130.358C77.125 129.906 77.2753 129.4 77.3041 128.88V35.8519C77.3041 34.8959 76.6321 34.5079 75.8081 34.9879ZM75.1481 120.308C75.1481 121.108 74.5721 121.648 73.8601 122.056L36.3561 143.708C35.6481 144.108 35.0681 143.788 35.0681 142.964V70.0959C35.0928 69.649 35.2223 69.2141 35.446 68.8264C35.6697 68.4387 35.9815 68.109 36.3561 67.8639L73.8601 46.2159C74.5721 45.8159 75.1481 46.1359 75.1481 46.9559V120.308Z" fill="#848DF9"/>
<path opacity="0.5" d="M75.8081 34.9879L34.5561 58.7999C34.1208 59.0862 33.7587 59.4705 33.4989 59.922C33.2391 60.3736 33.0888 60.8797 33.0601 61.3999V154.424C33.0601 155.38 33.7321 155.772 34.5561 155.292L75.8081 131.48C76.2433 131.194 76.6054 130.809 76.8652 130.358C77.125 129.906 77.2753 129.4 77.3041 128.88V35.8519C77.3041 34.8959 76.6321 34.5079 75.8081 34.9879ZM75.1481 120.308C75.1481 121.108 74.5721 121.648 73.8601 122.056L36.3561 143.708C35.6481 144.108 35.0681 143.788 35.0681 142.964V70.0959C35.0928 69.649 35.2223 69.2141 35.446 68.8264C35.6697 68.4387 35.9815 68.109 36.3561 67.8639L73.8601 46.2159C74.5721 45.8159 75.1481 46.1359 75.1481 46.9559V120.308Z" fill="black"/>
<path d="M34.3721 155.384C33.9265 155.572 33.4454 155.661 32.962 155.645C32.4786 155.629 32.0043 155.509 31.5721 155.292L29.8561 154.3C29.4178 154.016 29.0529 153.633 28.7915 153.181C28.5301 152.729 28.3795 152.221 28.3521 151.7V58.6799C28.3603 58.2927 28.4488 57.9113 28.6121 57.5599C28.6643 57.4369 28.723 57.3167 28.7881 57.2L33.5081 59.924C33.4085 60.1016 33.3216 60.2861 33.2481 60.476C33.1359 60.7728 33.075 61.0866 33.0681 61.4039V154.428C33.0601 155.308 33.6321 155.708 34.3721 155.384Z" fill="#848DF9"/>
<path opacity="0.7" d="M34.3721 155.384C33.9265 155.572 33.4454 155.661 32.962 155.645C32.4786 155.629 32.0043 155.509 31.5721 155.292L29.8561 154.3C29.4178 154.016 29.0529 153.633 28.7915 153.181C28.5301 152.729 28.3795 152.221 28.3521 151.7V58.6799C28.3603 58.2927 28.4488 57.9113 28.6121 57.5599C28.6643 57.4369 28.723 57.3167 28.7881 57.2L33.5081 59.924C33.4085 60.1016 33.3216 60.2861 33.2481 60.476C33.1359 60.7728 33.075 61.0866 33.0681 61.4039V154.428C33.0601 155.308 33.6321 155.708 34.3721 155.384Z" fill="black"/>
<path d="M55.5399 135.2C56.8479 134.448 57.9079 135.06 57.9079 136.568C57.8636 137.39 57.6261 138.19 57.2147 138.903C56.8032 139.616 56.2294 140.222 55.5399 140.672C54.2319 141.424 53.1719 140.812 53.1719 139.304C53.2162 138.482 53.4537 137.682 53.8651 136.969C54.2765 136.256 54.8503 135.65 55.5399 135.2Z" stroke="#E6E6E6" stroke-miterlimit="10"/>
<path d="M55.1999 48.8999C55.7519 48.5799 56.2039 48.8399 56.2039 49.4799C56.1842 49.8287 56.0831 50.1682 55.9088 50.471C55.7344 50.7738 55.4917 51.0316 55.1999 51.2239C54.6439 51.5439 54.1919 51.2839 54.1919 50.6399C54.2111 50.291 54.3124 49.9516 54.4876 49.6492C54.6627 49.3469 54.9068 49.0901 55.1999 48.8999Z" fill="black"/>
<path d="M51.3 55.0157L59.064 50.5317C59.528 50.2677 59.904 50.4557 59.904 50.9557C59.8836 51.2381 59.7969 51.5117 59.6509 51.7542C59.505 51.9968 59.3039 52.2015 59.064 52.3517L51.3 56.8317C50.836 57.0997 50.46 56.9117 50.46 56.4077C50.4809 56.1261 50.5679 55.8533 50.7138 55.6115C50.8598 55.3697 51.0606 55.1656 51.3 55.0157Z" fill="black"/>
<path d="M75.1479 120.308C75.1479 121.108 74.5719 121.648 73.8599 122.056L36.3559 143.708C35.6479 144.108 35.0679 143.788 35.0679 142.964V70.0959C35.0926 69.649 35.2221 69.2141 35.4458 68.8264C35.6696 68.4387 35.9813 68.109 36.3559 67.8639L73.8599 46.2159C74.5719 45.8159 75.1479 46.1359 75.1479 46.9559V120.308Z" fill="#848DF9"/>
<path opacity="0.9" d="M75.1479 120.308C75.1479 121.108 74.5719 121.648 73.8599 122.056L36.3559 143.708C35.6479 144.108 35.0679 143.788 35.0679 142.964V70.0959C35.0926 69.649 35.2221 69.2141 35.4458 68.8264C35.6696 68.4387 35.9813 68.109 36.3559 67.8639L73.8599 46.2159C74.5719 45.8159 75.1479 46.1359 75.1479 46.9559V120.308Z" fill="white"/>
<path d="M65.3882 55.8279C65.3882 56.1599 65.5602 56.3239 65.7882 56.1999C65.9117 56.1061 66.012 55.9852 66.0814 55.8465C66.1507 55.7078 66.1873 55.555 66.1882 55.3999C66.1882 55.0719 66.0162 54.9039 65.7882 55.0279C65.6647 55.1217 65.5644 55.2426 65.495 55.3813C65.4257 55.52 65.3891 55.6728 65.3882 55.8279Z" fill="#455A64"/>
<path d="M64.8759 55.388C64.856 55.4324 64.8492 55.4816 64.8562 55.5298C64.8633 55.578 64.884 55.6231 64.9158 55.66C64.9918 55.704 65.0998 55.608 65.1438 55.456C65.2322 55.0725 65.4568 54.7342 65.7759 54.504C65.8287 54.4635 65.8909 54.4368 65.9567 54.4265C66.0225 54.4161 66.0898 54.4223 66.1526 54.4446C66.2154 54.4668 66.2716 54.5044 66.3162 54.5539C66.3607 54.6034 66.3923 54.6632 66.4079 54.728C66.4519 54.828 66.5599 54.8 66.6319 54.668C66.6604 54.6203 66.6786 54.5673 66.6855 54.5122C66.6924 54.4571 66.6878 54.4012 66.6718 54.348C66.6458 54.2588 66.5988 54.1773 66.5347 54.1101C66.4707 54.0429 66.3914 53.9921 66.3036 53.9619C66.2158 53.9317 66.1221 53.9231 66.0302 53.9367C65.9384 53.9502 65.8512 53.9857 65.7759 54.04C65.3235 54.3665 65.004 54.845 64.8759 55.388Z" fill="#455A64"/>
<path d="M64.4002 55.0518C64.3562 55.1798 64.3682 55.3078 64.4322 55.3478C64.5002 55.3918 64.6042 55.3038 64.6522 55.1598C64.8347 54.5134 65.2327 53.9488 65.7802 53.5598C65.8706 53.4935 65.9748 53.4486 66.085 53.4283C66.1951 53.4079 66.3085 53.4127 66.4166 53.4424C66.5246 53.472 66.6246 53.5256 66.7091 53.5993C66.7935 53.6729 66.8602 53.7647 66.9042 53.8678C66.9522 53.9558 67.0562 53.9278 67.1242 53.7998C67.1525 53.7497 67.1696 53.6941 67.1744 53.6368C67.1792 53.5795 67.1717 53.5219 67.1522 53.4678C67.0973 53.3425 67.0148 53.2312 66.9111 53.1421C66.8073 53.053 66.6848 52.9884 66.5526 52.9531C66.4205 52.9177 66.2821 52.9126 66.1477 52.938C66.0133 52.9634 65.8863 53.0187 65.7762 53.0998C65.1088 53.5749 64.6234 54.2635 64.4002 55.0518Z" fill="#455A64"/>
<path d="M37.44 72.32V71.728C37.4386 71.6669 37.4512 71.6062 37.4769 71.5508C37.5025 71.4953 37.5406 71.4465 37.5881 71.408L37.6321 71.384C37.7121 71.336 37.78 71.384 37.78 71.528V72.12C37.7815 72.1811 37.7689 72.2417 37.7432 72.2972C37.7176 72.3526 37.6795 72.4015 37.6321 72.44L37.5881 72.464C37.5041 72.512 37.44 72.448 37.44 72.32Z" fill="#455A64"/>
<path d="M38.1241 71.9238V70.8998C38.1227 70.8387 38.1353 70.7781 38.161 70.7227C38.1866 70.6672 38.2247 70.6183 38.2721 70.5798L38.3161 70.5558C38.4001 70.5078 38.4681 70.5558 38.4681 70.6998V71.7238C38.4691 71.7853 38.4558 71.8461 38.4295 71.9016C38.4031 71.9571 38.3643 72.0058 38.3161 72.0438L38.2721 72.0678C38.1921 72.1158 38.1241 72.0518 38.1241 71.9238Z" fill="#455A64"/>
<path d="M38.7998 71.5279V70.0719C38.7995 70.0111 38.813 69.9511 38.8393 69.8963C38.8657 69.8416 38.9041 69.7935 38.9518 69.7559L38.9918 69.7319C39.0758 69.6839 39.1438 69.7319 39.1438 69.8759V71.3279C39.1448 71.3893 39.1315 71.4501 39.1052 71.5056C39.0788 71.5611 39.04 71.6098 38.9918 71.6479L38.9518 71.6719C38.8758 71.7199 38.7998 71.6559 38.7998 71.5279Z" fill="#455A64"/>
<path d="M39.4961 71.132V68.62C39.4953 68.5595 39.5082 68.4997 39.5339 68.445C39.5595 68.3902 39.5972 68.342 39.6441 68.304L39.6881 68.28C39.7721 68.232 39.8401 68.28 39.8401 68.424V70.932C39.8415 70.9931 39.8289 71.0537 39.8033 71.1091C39.7776 71.1646 39.7396 71.2135 39.6921 71.252L39.6481 71.276C39.5641 71.324 39.4961 71.26 39.4961 71.132Z" fill="#455A64"/>
<path d="M41.3518 70.232C41.3518 70.232 41.3518 70.196 41.3518 70.16V69.792L40.5798 70.236C40.5398 70.26 40.5198 70.236 40.5198 70.192V70.06C40.5175 70.036 40.5175 70.0119 40.5198 69.988L40.5478 69.912L41.3478 68.12C41.3592 68.095 41.3726 68.0709 41.3878 68.048C41.4036 68.0315 41.421 68.0168 41.4398 68.004L41.5478 67.944C41.5798 67.9226 41.6038 67.9226 41.6198 67.944C41.6297 67.9697 41.6297 67.9982 41.6198 68.024V69.308L41.7918 69.212C41.8238 69.192 41.8438 69.188 41.8598 69.212C41.8758 69.236 41.8598 69.248 41.8598 69.288V69.376C41.8669 69.4076 41.8669 69.4404 41.8598 69.472C41.8433 69.499 41.8198 69.5212 41.7918 69.536L41.6198 69.636V70C41.6232 70.0334 41.6161 70.0671 41.5997 70.0965C41.5832 70.1258 41.5581 70.1494 41.5278 70.164L41.3998 70.236C41.3878 70.236 41.3638 70.24 41.3518 70.232ZM41.3798 69.432V68.512L40.8238 69.752L41.3798 69.432Z" fill="#455A64"/>
<path d="M42.2643 69.4798C42.1123 69.3678 42.0403 69.1278 42.0403 68.7598C42.0351 68.4198 42.112 68.0837 42.2643 67.7798C42.4086 67.5023 42.6293 67.2719 42.9003 67.1158C42.9968 67.0586 43.1003 67.0142 43.2083 66.9838C43.2864 66.9592 43.3702 66.9592 43.4483 66.9838C43.4507 66.988 43.452 66.9928 43.452 66.9978C43.452 67.0027 43.4507 67.0075 43.4483 67.0118C43.4512 67.0263 43.4512 67.0412 43.4483 67.0558L43.3763 67.2558C43.3763 67.2838 43.3763 67.2998 43.3483 67.3038H43.3163C43.1754 67.2901 43.0342 67.3255 42.9163 67.4038C42.7308 67.5133 42.5797 67.6727 42.4803 67.8638C42.3705 68.0889 42.3169 68.3374 42.3243 68.5878C42.3243 68.8718 42.3763 69.0558 42.4763 69.1318C42.5763 69.2078 42.7203 69.1998 42.8963 69.0998C42.9623 69.0608 43.0252 69.0166 43.0843 68.9678C43.1406 68.9246 43.1917 68.8749 43.2363 68.8198V68.2238L42.9163 68.4078C42.8843 68.4278 42.8603 68.4318 42.8483 68.4078C42.8391 68.3833 42.8391 68.3563 42.8483 68.3318V68.2478C42.8406 68.2149 42.8406 68.1806 42.8483 68.1478C42.8648 68.1207 42.8883 68.0986 42.9163 68.0838L43.4283 67.7918C43.4643 67.7678 43.4883 67.7678 43.5043 67.7918C43.5203 67.8158 43.5283 67.8358 43.5283 67.8838V68.7358C43.531 68.7624 43.531 68.7892 43.5283 68.8158C43.5216 68.8376 43.5107 68.858 43.4963 68.8758C43.3358 69.0983 43.1282 69.2827 42.8883 69.4158C42.6283 69.5678 42.4003 69.5998 42.2643 69.4798Z" fill="#455A64"/>
<path d="M71.564 50.3078C71.5254 50.2673 71.4736 50.2418 71.4179 50.2359C71.3622 50.2301 71.3062 50.2442 71.26 50.2758L68.956 51.5998C68.8432 51.6894 68.7527 51.8039 68.6916 51.9344C68.6305 52.0649 68.6005 52.2078 68.604 52.3518V53.6398C68.5978 53.7119 68.6064 53.7845 68.629 53.8533C68.6517 53.922 68.6881 53.9855 68.736 54.0398C68.7696 54.0744 68.8128 54.0981 68.86 54.1078C68.9224 54.1188 68.9867 54.106 69.04 54.0718L71.344 52.7438C71.4568 52.6542 71.5473 52.5396 71.6084 52.4091C71.6694 52.2787 71.6994 52.1358 71.696 51.9918V50.7038C71.7016 50.6323 71.6928 50.5604 71.6701 50.4924C71.6475 50.4244 71.6114 50.3616 71.564 50.3078ZM68.82 53.8598C68.782 53.8064 68.765 53.7409 68.772 53.6758V52.3998C68.7708 52.2904 68.7943 52.1822 68.8407 52.0832C68.8871 51.9842 68.9552 51.8969 69.04 51.8278L71.344 50.4998C71.3725 50.4816 71.4062 50.4732 71.44 50.4758H71.48C71.5179 50.5292 71.535 50.5946 71.528 50.6598V51.9478C71.5292 52.0571 71.5057 52.1653 71.4593 52.2644C71.4129 52.3634 71.3448 52.4507 71.26 52.5198L68.956 53.8478C68.9 53.8878 68.852 53.8918 68.82 53.8598Z" fill="#455A64"/>
<path d="M70.2722 51.3359V52.8639L69.0322 53.5799H68.9922C68.9944 53.5627 68.9944 53.5452 68.9922 53.5279V52.3999C68.9924 52.3189 69.0104 52.2389 69.0449 52.1656C69.0795 52.0924 69.1298 52.0276 69.1922 51.9759L70.2722 51.3359Z" fill="#455A64"/>
<path d="M71.8122 50.64C71.8962 50.592 71.9643 50.768 71.9643 51.04V51.28C71.9844 51.4858 71.9289 51.692 71.8083 51.86L71.6562 51.96V50.76L71.8122 50.64Z" fill="#455A64"/>
<path d="M77.2919 35.5999C77.1839 34.7999 76.5599 34.5359 75.8079 34.9719L34.5559 58.7999C34.1124 59.0762 33.7474 59.4619 33.4959 59.9199L28.7759 57.1999C29.03 56.7436 29.3962 56.3596 29.8399 56.0839L71.0839 32.2639C71.5485 32.0272 72.0625 31.9038 72.5839 31.9038C73.1053 31.9038 73.6193 32.0272 74.0839 32.2639L75.8079 33.2519C76.2083 33.5149 76.5479 33.8604 76.8039 34.2654C77.0598 34.6704 77.2262 35.1254 77.2919 35.5999Z" fill="#848DF9"/>
<path opacity="0.2" d="M77.2919 35.5999C77.1839 34.7999 76.5599 34.5359 75.8079 34.9719L34.5559 58.7999C34.1124 59.0762 33.7474 59.4619 33.4959 59.9199L28.7759 57.1999C29.03 56.7436 29.3962 56.3596 29.8399 56.0839L71.0839 32.2639C71.5485 32.0272 72.0625 31.9038 72.5839 31.9038C73.1053 31.9038 73.6193 32.0272 74.0839 32.2639L75.8079 33.2519C76.2083 33.5149 76.5479 33.8604 76.8039 34.2654C77.0598 34.6704 77.2262 35.1254 77.2919 35.5999Z" fill="black"/>
<path d="M153.244 125.032C153.244 125.032 148.968 129.312 143.284 127.676C143.284 127.676 144.996 129.364 149.024 128.232C151.74 127.468 153.244 125.032 153.244 125.032Z" fill="#848DF9"/>
<path d="M161.732 98.8C161.732 98.8 163.916 104.44 160.132 108.976C160.132 108.976 162.368 108.096 162.96 103.952C163.348 101.144 161.732 98.8 161.732 98.8Z" fill="#848DF9"/>
<path d="M152.8 126.828C156.8 122.712 158.54 117.908 158.58 113C158.58 113 159.744 115.92 157.928 120.528C156.112 125.136 152.8 126.828 152.8 126.828Z" fill="#848DF9"/>
<path d="M42.4522 120.876C42.4522 120.876 42.4002 126.924 47.5522 129.832C47.5522 129.832 45.1522 129.792 43.1522 126.128C41.7722 123.656 42.4522 120.876 42.4522 120.876Z" fill="#848DF9"/>
<path d="M41.1481 123.3C40.2589 118.183 41.4278 112.923 44.4001 108.664C44.4001 108.664 41.7681 110.38 40.6001 115.196C39.4321 120.012 41.1481 123.3 41.1481 123.3Z" fill="#848DF9"/>
<path d="M130.744 89.6L132.436 84.54C127.98 85.34 126.768 85.948 125.452 89.632L124.58 92.568L119.244 108.992C117.98 109.324 102.244 113.66 101.696 113.728C101.696 113.728 101.672 113.768 101.656 113.788C96.516 114.116 94.856 114.344 94.856 114.344C96.3 118.12 99.008 120.248 102.748 121.016V120.928V120.956C109.368 119.828 120.228 117.268 123.76 116.096C125.248 115.62 125.884 113.944 126.496 112.544C128.996 106.828 131.608 99.124 132.496 94.488C133.072 91.696 132.228 90.3 130.744 89.6Z" fill="#B16668"/>
<path d="M132.436 84.52C132.436 84.52 128.008 83.84 126.088 87.904C124.8 90.648 120.86 102.4 120.86 102.4C120.86 102.4 123.66 106 129.792 106.22C129.792 106.22 135.584 92.92 135.26 92.496C134.936 92.072 132.436 84.52 132.436 84.52Z" fill="#37474F"/>
<path d="M131.624 84.4361C130.548 84.5401 127.82 88.1881 127.764 94.3961C127.688 102.712 131.764 112.892 132.788 115.088C133.812 117.284 135.804 121.584 139.188 124.776C140.28 125.8 147.736 128.7 152.54 123.3C157.428 117.808 156.656 110.592 155.68 108.332C154.044 104.548 151.152 100.144 151.256 95.1641C150.644 91.5881 149.472 86.9601 146.8 85.0201C145.7 84.7401 142.236 84.2961 141.56 84.3881L131.624 84.4361Z" fill="#FAFAFA"/>
<path d="M145.704 91.0361L144.34 92.7481C144.74 95.4641 146.8 99.3881 149.196 102.52C151.064 104.964 154.864 107.484 156.396 111.8C156.353 110.614 156.119 109.443 155.704 108.332C154.068 104.548 151.176 100.144 151.28 95.1641C151.18 94.5721 151.06 93.9641 150.924 93.3201L149.644 92.1601L145.704 91.0361Z" fill="#EBEBEB"/>
<path d="M146.8 85.02C149.14 85.596 150.4 86.832 152.448 89.172C154.8 91.812 159.6 97.364 159.6 97.364C162.956 103.18 159.94 109.096 157.424 108.124C157.424 108.124 151.752 102.584 148.272 98.384C145.94 95.584 144.752 93.984 144.62 90.9C144.508 88.476 144.94 86 146.8 85.02Z" fill="#B16668"/>
<path d="M145.576 84.8001C145.576 84.8001 147.596 84.3521 150.224 86.4681C152.852 88.5841 159.276 95.5761 159.276 95.5761C159.276 95.5761 159.468 102.98 154.752 106.32C154.752 106.32 147.792 99.3361 146.076 96.9201C144.882 95.1428 144.204 93.0699 144.115 90.9307C144.027 88.7916 144.533 86.6697 145.576 84.8001Z" fill="#37474F"/>
<path d="M144.34 70.8C144.34 70.8 143.324 77.004 142.848 78.036C142.529 78.676 141.974 79.1676 141.3 79.4081L141.2 75.1L144.34 70.8Z" fill="#263238"/>
<path d="M141.04 61.7961C141.04 61.7961 142.716 60.9521 143.864 62.0201C145.012 63.0881 145.088 66.7601 144.224 71.5161L141.336 71.3641L141.04 61.7961Z" fill="#263238"/>
<path d="M132.178 75.5853C136.553 74.7197 139.398 70.471 138.533 66.0956C137.667 61.7201 133.419 58.8748 129.043 59.7404C124.668 60.6059 121.822 64.8546 122.688 69.2301C123.553 73.6055 127.802 76.4509 132.178 75.5853Z" fill="#263238"/>
<path d="M141.28 62.424L143.78 60.128C143.637 59.9566 143.461 59.816 143.263 59.7146C143.064 59.6133 142.847 59.5533 142.624 59.5384C142.402 59.5234 142.179 59.5538 141.968 59.6276C141.758 59.7015 141.564 59.8172 141.4 59.968C141.068 60.2833 140.87 60.7145 140.848 61.1719C140.825 61.6293 140.98 62.0777 141.28 62.424Z" fill="#263238"/>
<path d="M126.324 62.9401C125.816 63.8161 123.276 67.4961 124.204 74.4081C125.076 80.9161 127.168 82.4441 128.28 82.7881C129.392 83.1321 131.624 82.9361 133.576 82.3881L133.928 85.1521C133.928 85.1521 132.788 86.9841 134.328 87.9961C135.868 89.0081 139.256 88.2641 140.04 87.6401C141.884 86.1641 141.604 84.9201 141.604 84.9201L141.204 75.9441C141.204 75.9441 142.592 77.0881 144.38 75.7401C146.068 74.4721 146.144 71.1201 144.72 69.9681C143.296 68.8161 141.012 69.5041 140.7 71.3561C140.7 71.3561 140.64 64.4761 136.732 62.6481C131.728 60.3041 126.324 62.9401 126.324 62.9401Z" fill="#B16668"/>
<path d="M140.252 72.252C140.472 72.136 140.848 70.296 141.932 69.672C142.928 69.096 141.048 60.872 141.04 60.832C140.928 60.228 140.308 59.52 139.904 59.08C139.293 58.4322 138.528 57.9504 137.68 57.68C136.514 57.3241 135.28 57.25 134.08 57.464C132.216 57.752 130.428 58.528 128.544 58.536C126.756 58.536 125.048 57.844 123.296 57.496C122.961 57.3908 122.598 57.415 122.28 57.564C122.117 57.6767 121.989 57.8335 121.912 58.016C121.692 58.5455 121.672 59.137 121.856 59.68C122.048 60.2177 122.317 60.7244 122.656 61.184C122.032 60.892 121.152 60.868 120.792 61.452C120.508 61.912 120.684 62.512 120.944 62.984C122.04 64.952 123.988 65.816 126.036 66.284C126.897 66.4299 127.767 66.5101 128.64 66.524C130.848 66.648 132.968 65.764 135.004 64.9C135.564 64.66 136.656 64.252 137.268 64.748C138.028 65.364 137.992 67.356 138.22 68.992C138.568 71.556 139.42 72.7 140.252 72.252Z" fill="#263238"/>
<path d="M133.2 77.2L130.972 78.196C131.031 78.3464 131.12 78.4834 131.233 78.5987C131.347 78.7139 131.482 78.8051 131.632 78.8668C131.781 78.9284 131.941 78.9592 132.103 78.9574C132.265 78.9555 132.424 78.921 132.572 78.856C132.869 78.7133 133.1 78.4618 133.217 78.1536C133.334 77.8453 133.328 77.5038 133.2 77.2Z" fill="#9A4A4D"/>
<path d="M125.2 71.884C125.216 72.0457 125.279 72.1991 125.382 72.3251C125.484 72.4511 125.622 72.5442 125.777 72.5927C125.932 72.6411 126.098 72.6429 126.254 72.5977C126.41 72.5526 126.549 72.4625 126.655 72.3387C126.76 72.2149 126.826 72.0629 126.846 71.9015C126.865 71.7402 126.837 71.5767 126.764 71.4314C126.691 71.2862 126.577 71.1655 126.437 71.0845C126.296 71.0035 126.134 70.9658 125.972 70.976C125.749 70.9944 125.543 71.1002 125.398 71.2704C125.254 71.4406 125.182 71.6613 125.2 71.884Z" fill="#263238"/>
<path d="M131.624 71.488C131.64 71.6497 131.703 71.8031 131.806 71.9291C131.909 72.0551 132.046 72.1482 132.201 72.1967C132.356 72.2451 132.522 72.2469 132.678 72.2018C132.834 72.1566 132.974 72.0665 133.079 71.9427C133.184 71.8189 133.251 71.6669 133.27 71.5055C133.29 71.3442 133.261 71.1807 133.188 71.0355C133.116 70.8902 133.002 70.7695 132.861 70.6885C132.72 70.6076 132.558 70.5698 132.396 70.58C132.286 70.5886 132.178 70.6189 132.079 70.6693C131.981 70.7196 131.893 70.789 131.821 70.8734C131.749 70.9578 131.695 71.0555 131.661 71.161C131.627 71.2665 131.615 71.3776 131.624 71.488Z" fill="#263238"/>
<path d="M129.448 71.6641L129.3 76.6281L126.688 75.8121L129.448 71.6641Z" fill="#9A4A4D"/>
<path d="M133.576 82.4001C135.216 82.0241 138.424 80.6441 139.032 79.4441C139.032 79.4441 139.092 80.2081 138.12 81.3681C137.148 82.5281 133.74 83.6881 133.74 83.6881L133.576 82.4001Z" fill="#9A4A4D"/>
<path d="M124.548 70.16L126.4 69.36C126.285 69.1122 126.08 68.9182 125.826 68.8183C125.571 68.7185 125.289 68.7205 125.036 68.824C124.915 68.8778 124.805 68.9555 124.715 69.0524C124.624 69.1494 124.554 69.2636 124.508 69.3883C124.463 69.513 124.443 69.6456 124.45 69.7782C124.456 69.9108 124.49 70.0407 124.548 70.16Z" fill="#263238"/>
<path d="M132.124 68.9641L133.892 69.9241C134.018 69.682 134.045 69.4003 133.966 69.1388C133.888 68.8774 133.711 68.6568 133.472 68.5241C133.355 68.4608 133.227 68.4219 133.095 68.4098C132.963 68.3977 132.829 68.4128 132.703 68.4539C132.577 68.4951 132.461 68.5616 132.361 68.6493C132.261 68.7371 132.181 68.8442 132.124 68.9641Z" fill="#263238"/>
<path d="M78.8845 83.6881H65.1005C61.8092 83.687 58.6525 82.3813 56.3222 80.057C53.9919 77.7327 52.678 74.5794 52.6685 71.2881V69.1241C52.6621 65.9485 53.9172 62.9005 56.1578 60.6501C58.3984 58.3998 61.4409 57.1315 64.6165 57.1241H66.8645C68.437 57.1193 69.9949 57.4246 71.4493 58.0225C72.9037 58.6204 74.226 59.4991 75.3405 60.6084C76.455 61.7177 77.3399 63.0359 77.9446 64.4875C78.5493 65.939 78.8619 67.4956 78.8645 69.0681L78.8845 83.6881Z" fill="#263238"/>
<path d="M67.4761 84.4641C72.4201 84.0921 75.5361 86.3841 75.6401 90.9801C75.6961 93.2961 73.6881 102.516 73.6881 102.516L67.4761 84.4641Z" fill="#FFA8A7"/>
<path d="M67.4763 84.4641C69.9923 84.7161 72.7683 89.0121 75.1843 94.5361C76.1323 96.7121 77.8643 99.6401 75.6803 103.712C74.3283 106.228 71.5443 107.244 71.5443 107.244C70.5364 110.4 69.0816 113.396 67.2243 116.14C66.0641 119.834 63.9536 123.158 61.1043 125.78C59.9843 126.772 53.1403 132.832 47.6243 128.156C44.3443 125.376 43.2003 120.956 43.5363 116.784C43.7323 114.332 44.2763 111.908 46.0003 110.152C46.9942 109.141 47.9127 108.058 48.7483 106.912C49.6243 102.74 48.6203 99.9081 48.5163 94.9121C49.1283 91.3361 50.6443 88.3041 53.3163 86.3681C55.2952 85.585 57.3765 85.0906 59.4963 84.9001L67.4763 84.4641Z" fill="#848DF9"/>
<path opacity="0.1" d="M67.3925 115.892L67.0565 113.2C67.0565 113.2 55.4565 95.0161 54.9645 94.5041C54.6765 94.1961 51.8925 92.3401 49.7165 90.9041C49.1469 92.1805 48.7436 93.5248 48.5165 94.9041C48.6205 99.8841 49.6245 102.716 48.7485 106.904C48.7485 106.904 48.1525 107.748 47.1885 108.856C48.9085 109.304 51.7125 107.14 51.7125 107.14C51.7125 107.14 57.3125 115.056 59.7765 117.868C62.0765 120.504 63.4525 120.896 65.1525 120.78C66.0273 119.32 66.7229 117.759 67.2245 116.132C67.2845 116.056 67.3365 115.972 67.3925 115.892Z" fill="black"/>
<path opacity="0.05" d="M75.6804 103.712C75.7964 103.492 75.9044 103.276 76.0004 103.06C73.7484 104.788 72.1804 103.572 70.2924 103.208C68.3404 102.832 66.8924 105.608 63.2404 105.264C58.4404 104.8 56.7004 101.78 56.7004 101.78C56.7004 101.78 56.5724 107.008 62.5204 108.156C66.4964 108.924 67.9564 106.776 69.0564 106.776C69.5364 106.776 69.9644 107.148 71.5444 107.244C71.5444 107.244 74.3284 106.228 75.6804 103.712Z" fill="black"/>
<path d="M74.3322 63.6001C74.8282 64.4561 77.2922 68.0281 76.3922 74.7361C75.5442 81.0521 73.5122 82.0801 72.4322 82.4161C71.3522 82.7521 69.1882 82.5561 67.2922 82.0161L66.8642 85.8161C66.8642 85.8161 68.7042 88.4321 68.3402 90.1521C67.9762 91.8721 64.3002 91.6521 61.9962 89.6721C60.6093 88.4547 59.7206 86.7683 59.5002 84.9361L59.9002 76.2161C59.9002 76.2161 58.5522 77.3281 56.8162 76.0201C55.1802 74.7881 55.1042 71.5361 56.4882 70.4201C57.8722 69.3041 60.0882 69.9681 60.3882 71.7641C60.3882 71.7641 64.6762 72.7561 68.4722 70.9641C73.3162 68.6921 74.0242 65.4001 74.3322 63.6001Z" fill="#FFA8A7"/>
<path d="M60.468 74.1601L60.3521 70.1921C60.8912 70.1907 61.4099 70.3982 61.7993 70.7712C62.1887 71.1441 62.4183 71.6534 62.4401 72.1921C62.4444 72.4521 62.3963 72.7103 62.2987 72.9513C62.2011 73.1923 62.0559 73.4112 61.8719 73.5948C61.6878 73.7785 61.4687 73.9232 61.2275 74.0204C60.9863 74.1175 60.728 74.165 60.468 74.1601Z" fill="#263238"/>
<path d="M69.1404 77.7522L71.3004 78.7202C71.2426 78.8653 71.1562 78.9973 71.0465 79.1084C70.9368 79.2196 70.8059 79.3076 70.6616 79.3673C70.5173 79.4269 70.3624 79.457 70.2063 79.4558C70.0501 79.4546 69.8958 79.4221 69.7524 79.3602C69.4621 79.2234 69.2362 78.9795 69.1221 78.6796C69.008 78.3798 69.0145 78.0473 69.1404 77.7522Z" fill="#F28F8F"/>
<path d="M75.42 72.34C75.4202 72.4493 75.3981 72.5574 75.3549 72.6577C75.3117 72.758 75.2485 72.8484 75.169 72.9234C75.0896 72.9983 74.9956 73.0562 74.8929 73.0935C74.7903 73.1307 74.6811 73.1466 74.572 73.14C74.3557 73.1217 74.1555 73.0184 74.0153 72.8526C73.8751 72.6869 73.8063 72.4724 73.824 72.256C73.8378 72.0439 73.9353 71.8459 74.0951 71.7056C74.1742 71.6361 74.2662 71.5829 74.3659 71.549C74.4656 71.5151 74.571 71.5012 74.676 71.508C74.7811 71.5149 74.8838 71.5423 74.9782 71.5888C75.0727 71.6353 75.157 71.7 75.2265 71.7791C75.2959 71.8582 75.3491 71.9503 75.383 72.0499C75.4169 72.1496 75.4309 72.255 75.424 72.36L75.42 72.34Z" fill="#263238"/>
<path d="M69.6242 72.8C69.6075 72.9557 69.5455 73.103 69.4458 73.2238C69.3461 73.3446 69.2131 73.4335 69.0634 73.4794C68.9137 73.5253 68.7538 73.5263 68.6035 73.4822C68.4533 73.4381 68.3193 73.3509 68.2181 73.2313C68.1169 73.1118 68.0531 72.9652 68.0345 72.8097C68.0159 72.6542 68.0433 72.4966 68.1134 72.3566C68.1834 72.2165 68.2931 72.1001 68.4287 72.0218C68.5643 71.9435 68.7199 71.9067 68.8762 71.916C68.9843 71.9224 69.09 71.9507 69.1868 71.9991C69.2836 72.0476 69.3696 72.1152 69.4395 72.1978C69.5095 72.2804 69.5619 72.3764 69.5936 72.4799C69.6254 72.5834 69.6358 72.6923 69.6242 72.8Z" fill="#263238"/>
<path d="M71.9443 72.2881L72.0883 77.1081L74.6243 76.3161L71.9443 72.2881Z" fill="#F28F8F"/>
<path d="M67.2922 82.0001C65.6922 81.6361 62.5882 80.2961 61.9962 79.1321C61.9962 79.1321 61.9402 79.8761 62.8842 81.0001C63.8282 82.1241 67.1522 83.2321 67.1522 83.2321L67.2922 82.0001Z" fill="#F28F8F"/>
<path d="M75.6764 70.192L73.8804 69.416C73.9922 69.1761 74.192 68.9883 74.4385 68.8915C74.6849 68.7947 74.9591 68.7963 75.2044 68.896C75.3222 68.9481 75.4283 69.0234 75.5164 69.1174C75.6044 69.2115 75.6725 69.3224 75.7166 69.4435C75.7606 69.5645 75.7798 69.6932 75.7729 69.8218C75.766 69.9505 75.7332 70.0764 75.6764 70.192Z" fill="#263238"/>
<path d="M64.9199 119.372L68.8239 111.904C70.1199 112.092 71.4159 112.272 72.7119 112.452C75.2919 112.808 85.0399 114.004 85.5919 114.012C86.6681 113.995 87.73 113.764 88.7159 113.332C90.2599 112.752 91.4039 111.824 92.6519 111.568C93.23 111.454 93.8219 111.427 94.4079 111.488C95.1479 111.54 94.9559 111.936 95.6879 112.064C95.8979 112.083 96.098 112.162 96.2639 112.292C96.5439 112.556 96.3399 112.716 96.1919 112.932C96.0349 113.205 95.9342 113.507 95.8959 113.82C95.8399 114.088 95.6199 115 95.9999 115.148C97.8439 115.864 98.0519 116.92 100.444 118.972C101.588 119.952 102.204 120.66 102.976 121.16C103.46 121.892 103.496 122.36 101.776 123.368C100.632 124.048 98.5759 125.368 95.2119 124.312C91.5479 123.164 89.6719 121.112 88.7279 121.068C82.0319 120.692 68.5639 120.136 64.9199 119.372Z" fill="#FFA8A7"/>
<path d="M68.8241 111.904L58.9601 95.732C58.9601 95.732 57.3401 86.696 53.3201 86.384C53.3201 86.384 49.6401 87.332 48.8001 89.54C47.7881 92.212 47.8361 94.828 50.8561 100.74C53.1361 105.22 59.3161 113.664 61.7881 116.524C62.7881 117.68 63.8801 119.036 64.9201 119.356" fill="#FFA8A7"/>
<path d="M88.8481 121.08C89.2262 121.175 89.5786 121.353 89.8801 121.6C90.4971 121.489 91.0723 121.213 91.5441 120.8C93.3921 119.452 99.7441 122.16 98.1801 123.9C97.0441 125.164 95.9361 125.5 94.1241 124.936C91.4521 124.12 88.6041 122.9 88.8481 121.08Z" fill="#B16668"/>
<path d="M95.0083 111.712C92.9043 112.076 90.7203 113.612 89.5803 114.076C88.4403 114.54 87.2643 114.816 88.3123 115.82C89.3603 116.824 91.9123 115.82 93.6763 115.196C94.8763 114.764 96.3923 115.196 97.0683 115.476C97.5643 115.68 97.3003 114.34 97.3003 114.34C96.9003 113.756 101.864 114.34 101.7 113.764C99.0763 113.876 96.7043 111.324 95.0083 111.712Z" fill="#B16668"/>
</svg>
